<?xml version="1.0" encoding="UTF-8" standalone="no"?>
<!DOCTYPE svg PUBLIC "-//W3C//DTD SVG 1.1//EN"
 "http://www.w3.org/Graphics/SVG/1.1/DTD/svg11.dtd">
<!-- Generated by graphviz version 2.40.1 (20161225.0304)
 -->
<!-- Title: finite_state_machine Pages: 1 -->
<svg width="460pt" height="357pt"
 viewBox="0.00 0.00 460.00 357.00" xmlns="http://www.w3.org/2000/svg" xmlns:xlink="http://www.w3.org/1999/xlink">
<g id="graph0" class="graph" transform="scale(1 1) rotate(0) translate(4 353)">
<title>finite_state_machine</title>
<polygon fill="#ffffff" stroke="transparent" points="-4,4 -4,-353 456,-353 456,4 -4,4"/>
<!-- 1 -->
<g id="node1" class="node">
<title>1</title>
<ellipse fill="none" stroke="#000000" cx="18" cy="-189" rx="18" ry="18"/>
<text text-anchor="middle" x="18" y="-185.3" font-family="Times,serif" font-size="14.00" fill="#000000">1</text>
</g>
<!-- 5 -->
<g id="node2" class="node">
<title>5</title>
<ellipse fill="none" stroke="#000000" cx="104" cy="-234" rx="18" ry="18"/>
<text text-anchor="middle" x="104" y="-230.3" font-family="Times,serif" font-size="14.00" fill="#000000">5</text>
</g>
<!-- 1&#45;&gt;5 -->
<g id="edge1" class="edge">
<title>1&#45;&gt;5</title>
<path fill="none" stroke="#000000" d="M35.6702,-193.9427C45.4958,-197.0361 57.7681,-201.4827 68,-207 72.777,-209.5759 77.6124,-212.742 82.1227,-215.9883"/>
<polygon fill="#000000" stroke="#000000" points="80.2143,-218.9339 90.2945,-222.1957 84.4485,-213.3597 80.2143,-218.9339"/>
<text text-anchor="middle" x="61" y="-210.8" font-family="Times,serif" font-size="14.00" fill="#000000">21</text>
</g>
<!-- 4 -->
<g id="node3" class="node">
<title>4</title>
<ellipse fill="none" stroke="#000000" cx="183" cy="-195" rx="18" ry="18"/>
<text text-anchor="middle" x="183" y="-191.3" font-family="Times,serif" font-size="14.00" fill="#000000">4</text>
</g>
<!-- 1&#45;&gt;4 -->
<g id="edge2" class="edge">
<title>1&#45;&gt;4</title>
<path fill="none" stroke="#000000" d="M29.8989,-175.328C42.341,-162.2098 63.2047,-143.3422 86,-136 101.2295,-131.0947 107.0937,-130.1862 122,-136 140.1874,-143.0936 155.8891,-158.6495 166.8061,-172.0077"/>
<polygon fill="#000000" stroke="#000000" points="164.0694,-174.1901 172.9645,-179.9457 169.6001,-169.8993 164.0694,-174.1901"/>
<text text-anchor="middle" x="104" y="-139.8" font-family="Times,serif" font-size="14.00" fill="#000000">1</text>
</g>
<!-- 3 -->
<g id="node4" class="node">
<title>3</title>
<ellipse fill="none" stroke="#000000" cx="434" cy="-198" rx="18" ry="18"/>
<text text-anchor="middle" x="434" y="-194.3" font-family="Times,serif" font-size="14.00" fill="#000000">3</text>
</g>
<!-- 1&#45;&gt;3 -->
<g id="edge3" class="edge">
<title>1&#45;&gt;3</title>
<path fill="none" stroke="#000000" d="M21.4407,-206.7588C27.4821,-236.4169 40.63,-294.3257 54,-310 69.9969,-328.7538 79.3504,-334 104,-334 104,-334 104,-334 348,-334 372.6496,-334 381.7995,-328.5782 398,-310 418.5798,-286.3998 427.4216,-250.8976 431.2036,-226.2134"/>
<polygon fill="#000000" stroke="#000000" points="434.7077,-226.4166 432.5718,-216.0393 427.7701,-225.4835 434.7077,-226.4166"/>
<text text-anchor="middle" x="226" y="-337.8" font-family="Times,serif" font-size="14.00" fill="#000000">0</text>
</g>
<!-- 0 -->
<g id="node5" class="node">
<title>0</title>
<ellipse fill="none" stroke="#000000" cx="348" cy="-65" rx="18" ry="18"/>
<text text-anchor="middle" x="348" y="-61.3" font-family="Times,serif" font-size="14.00" fill="#000000">0</text>
</g>
<!-- 1&#45;&gt;0 -->
<g id="edge4" class="edge">
<title>1&#45;&gt;0</title>
<path fill="none" stroke="#000000" d="M20.6356,-170.9589C27.2269,-133.5524 48.1049,-51 104,-51 104,-51 104,-51 269,-51 286.4286,-51 305.6929,-54.3445 320.8347,-57.7642"/>
<polygon fill="#000000" stroke="#000000" points="320.045,-61.174 330.5857,-60.1035 321.6781,-54.3671 320.045,-61.174"/>
<text text-anchor="middle" x="183" y="-54.8" font-family="Times,serif" font-size="14.00" fill="#000000">0</text>
</g>
<!-- 5&#45;&gt;1 -->
<g id="edge15" class="edge">
<title>5&#45;&gt;1</title>
<path fill="none" stroke="#000000" d="M86.0971,-231.945C76.1988,-230.2707 63.9312,-227.2812 54,-222 48.0066,-218.8128 42.2409,-214.3915 37.1466,-209.8197"/>
<polygon fill="#000000" stroke="#000000" points="39.3773,-207.1078 29.7579,-202.6674 34.5087,-212.1374 39.3773,-207.1078"/>
<text text-anchor="middle" x="61" y="-230.8" font-family="Times,serif" font-size="14.00" fill="#000000">0</text>
</g>
<!-- 5&#45;&gt;4 -->
<g id="edge16" class="edge">
<title>5&#45;&gt;4</title>
<path fill="none" stroke="#000000" d="M121.6976,-230.6243C129.6804,-228.7121 139.0743,-225.9053 147,-222 151.8683,-219.6012 156.7454,-216.516 161.2681,-213.2937"/>
<polygon fill="#000000" stroke="#000000" points="163.6,-215.9172 169.4328,-207.0725 159.3575,-210.3493 163.6,-215.9172"/>
<text text-anchor="middle" x="143.5" y="-227.8" font-family="Times,serif" font-size="14.00" fill="#000000">8</text>
</g>
<!-- 4&#45;&gt;1 -->
<g id="edge17" class="edge">
<title>4&#45;&gt;1</title>
<path fill="none" stroke="#000000" d="M164.8539,-194.011C152.7245,-193.3736 136.4092,-192.5621 122,-192 96.3319,-190.9987 67.0879,-190.1841 46.162,-189.6577"/>
<polygon fill="#000000" stroke="#000000" points="46.1232,-186.1558 36.0403,-189.4093 45.9514,-193.1537 46.1232,-186.1558"/>
<text text-anchor="middle" x="104" y="-195.8" font-family="Times,serif" font-size="14.00" fill="#000000">0</text>
</g>
<!-- 4&#45;&gt;5 -->
<g id="edge20" class="edge">
<title>4&#45;&gt;5</title>
<path fill="none" stroke="#000000" d="M164.7678,-196.2535C156.8563,-197.3293 147.6674,-199.3205 140,-203 134.2836,-205.7432 128.754,-209.6344 123.8146,-213.7366"/>
<polygon fill="#000000" stroke="#000000" points="121.2072,-211.3752 116.1302,-220.6743 125.8982,-216.5709 121.2072,-211.3752"/>
<text text-anchor="middle" x="143.5" y="-206.8" font-family="Times,serif" font-size="14.00" fill="#000000">6</text>
</g>
<!-- 4&#45;&gt;3 -->
<g id="edge18" class="edge">
<title>4&#45;&gt;3</title>
<path fill="none" stroke="#000000" d="M199.4819,-203.1434C205.4875,-205.7657 212.42,-208.4037 219,-210 296.3322,-228.7609 320.4579,-231.8738 398,-214 401.5052,-213.192 405.0897,-212.0407 408.5728,-210.7213"/>
<polygon fill="#000000" stroke="#000000" points="410.1524,-213.8525 417.9712,-206.7028 407.4004,-207.4161 410.1524,-213.8525"/>
<text text-anchor="middle" x="308.5" y="-228.8" font-family="Times,serif" font-size="14.00" fill="#000000">0</text>
</g>
<!-- 2 -->
<g id="node6" class="node">
<title>2</title>
<ellipse fill="none" stroke="#000000" cx="269" cy="-152" rx="18" ry="18"/>
<text text-anchor="middle" x="269" y="-148.3" font-family="Times,serif" font-size="14.00" fill="#000000">2</text>
</g>
<!-- 4&#45;&gt;2 -->
<g id="edge19" class="edge">
<title>4&#45;&gt;2</title>
<path fill="none" stroke="#000000" d="M191.3188,-178.8489C197.4679,-168.8069 206.87,-156.7482 219,-151 225.7193,-147.8159 233.5386,-146.874 240.9699,-147.0306"/>
<polygon fill="#000000" stroke="#000000" points="240.8078,-150.5291 251.062,-147.8641 241.3841,-143.5528 240.8078,-150.5291"/>
<text text-anchor="middle" x="226" y="-154.8" font-family="Times,serif" font-size="14.00" fill="#000000">8</text>
</g>
<!-- 3&#45;&gt;1 -->
<g id="edge5" class="edge">
<title>3&#45;&gt;1</title>
<path fill="none" stroke="#000000" d="M428.0277,-215.0703C416.9882,-243.1479 390.5559,-296 348,-296 104,-296 104,-296 104,-296 63.1397,-296 38.4366,-248.0095 26.5757,-216.3078"/>
<polygon fill="#000000" stroke="#000000" points="29.802,-214.9327 23.1718,-206.6689 23.2014,-217.2637 29.802,-214.9327"/>
<text text-anchor="middle" x="226" y="-299.8" font-family="Times,serif" font-size="14.00" fill="#000000">11</text>
</g>
<!-- 3&#45;&gt;4 -->
<g id="edge7" class="edge">
<title>3&#45;&gt;4</title>
<path fill="none" stroke="#000000" d="M415.6941,-199.214C410.0251,-199.537 403.7566,-199.8402 398,-200 391.7802,-200.1726 390.2217,-200.0774 384,-200 322.265,-199.2323 249.8891,-197.1387 211.045,-195.9178"/>
<polygon fill="#000000" stroke="#000000" points="211.1212,-192.4185 201.0148,-195.5984 210.8983,-199.415 211.1212,-192.4185"/>
<text text-anchor="middle" x="308.5" y="-201.8" font-family="Times,serif" font-size="14.00" fill="#000000">5</text>
</g>
<!-- 3&#45;&gt;0 -->
<g id="edge8" class="edge">
<title>3&#45;&gt;0</title>
<path fill="none" stroke="#000000" d="M432.0528,-180.0944C427.9362,-145.9938 417.1217,-73.8002 398,-59 391.3152,-53.826 382.5476,-53.4161 374.224,-54.9098"/>
<polygon fill="#000000" stroke="#000000" points="373.2386,-51.5499 364.4612,-57.4835 375.023,-58.3187 373.2386,-51.5499"/>
<text text-anchor="middle" x="391" y="-62.8" font-family="Times,serif" font-size="14.00" fill="#000000">0</text>
</g>
<!-- 3&#45;&gt;2 -->
<g id="edge6" class="edge">
<title>3&#45;&gt;2</title>
<path fill="none" stroke="#000000" d="M422.906,-183.4001C410.8017,-168.8857 389.9264,-147.7065 366,-140 342.8932,-132.5575 315.3193,-137.1809 295.4872,-142.7087"/>
<polygon fill="#000000" stroke="#000000" points="294.439,-139.3691 285.8867,-145.6227 296.4722,-146.0674 294.439,-139.3691"/>
<text text-anchor="middle" x="348" y="-143.8" font-family="Times,serif" font-size="14.00" fill="#000000">2</text>
</g>
<!-- 0&#45;&gt;1 -->
<g id="edge9" class="edge">
<title>0&#45;&gt;1</title>
<path fill="none" stroke="#000000" d="M338.6132,-49.5959C325.5857,-30.3745 300.0818,0 269,0 104,0 104,0 104,0 68.6003,0 70.2664,-30.5589 54,-62 37.5252,-93.8438 27.7418,-134.1967 22.6241,-160.7662"/>
<polygon fill="#000000" stroke="#000000" points="19.126,-160.4384 20.7691,-170.9051 26.0117,-161.6983 19.126,-160.4384"/>
<text text-anchor="middle" x="183" y="-3.8" font-family="Times,serif" font-size="14.00" fill="#000000">7</text>
</g>
<!-- 0&#45;&gt;3 -->
<g id="edge10" class="edge">
<title>0&#45;&gt;3</title>
<path fill="none" stroke="#000000" d="M364.9078,-72.2711C375.7088,-77.6849 389.2748,-86.0306 398,-97 414.9295,-118.2838 424.2607,-148.1683 429.1524,-169.9054"/>
<polygon fill="#000000" stroke="#000000" points="425.7562,-170.7658 431.211,-179.8485 432.6109,-169.3465 425.7562,-170.7658"/>
<text text-anchor="middle" x="391" y="-100.8" font-family="Times,serif" font-size="14.00" fill="#000000">10</text>
</g>
<!-- 0&#45;&gt;2 -->
<g id="edge11" class="edge">
<title>0&#45;&gt;2</title>
<path fill="none" stroke="#000000" d="M330.5702,-70.1943C322.0821,-73.3999 312.1848,-78.2183 305,-85 293.2548,-96.0863 284.515,-111.8735 278.5898,-125.3387"/>
<polygon fill="#000000" stroke="#000000" points="275.3343,-124.053 274.7701,-134.6328 281.8088,-126.7139 275.3343,-124.053"/>
<text text-anchor="middle" x="308.5" y="-88.8" font-family="Times,serif" font-size="14.00" fill="#000000">0</text>
</g>
<!-- 2&#45;&gt;4 -->
<g id="edge14" class="edge">
<title>2&#45;&gt;4</title>
<path fill="none" stroke="#000000" d="M252.8966,-160.0517C240.4236,-166.2882 222.9054,-175.0473 208.5275,-182.2362"/>
<polygon fill="#000000" stroke="#000000" points="206.555,-179.3093 199.1759,-186.912 209.6855,-185.5703 206.555,-179.3093"/>
<text text-anchor="middle" x="226" y="-179.8" font-family="Times,serif" font-size="14.00" fill="#000000">4</text>
</g>
<!-- 2&#45;&gt;3 -->
<g id="edge12" class="edge">
<title>2&#45;&gt;3</title>
<path fill="none" stroke="#000000" d="M286.346,-156.8359C315.0647,-164.8423 372.7033,-180.9112 406.8528,-190.4317"/>
<polygon fill="#000000" stroke="#000000" points="406.0662,-193.8458 416.6388,-193.1599 407.9461,-187.1029 406.0662,-193.8458"/>
<text text-anchor="middle" x="348" y="-181.8" font-family="Times,serif" font-size="14.00" fill="#000000">0</text>
</g>
<!-- 2&#45;&gt;0 -->
<g id="edge13" class="edge">
<title>2&#45;&gt;0</title>
<path fill="none" stroke="#000000" d="M281.3438,-138.4063C294.0981,-124.3603 314.1739,-102.2515 328.9628,-85.965"/>
<polygon fill="#000000" stroke="#000000" points="331.6116,-88.2545 335.7429,-78.4983 326.4293,-83.5487 331.6116,-88.2545"/>
<text text-anchor="middle" x="308.5" y="-114.8" font-family="Times,serif" font-size="14.00" fill="#000000">8</text>
</g>
</g>
</svg>
