<?xml version="1.0" encoding="UTF-8" standalone="no"?>
<!DOCTYPE svg PUBLIC "-//W3C//DTD SVG 1.1//EN"
 "http://www.w3.org/Graphics/SVG/1.1/DTD/svg11.dtd">
<!-- Generated by graphviz version 2.40.1 (20161225.0304)
 -->
<!-- Title: finite_state_machine Pages: 1 -->
<svg width="395pt" height="199pt"
 viewBox="0.00 0.00 395.00 199.00" xmlns="http://www.w3.org/2000/svg" xmlns:xlink="http://www.w3.org/1999/xlink">
<g id="graph0" class="graph" transform="scale(1 1) rotate(0) translate(4 195)">
<title>finite_state_machine</title>
<polygon fill="#ffffff" stroke="transparent" points="-4,4 -4,-195 391,-195 391,4 -4,4"/>
<!-- 2 -->
<g id="node1" class="node">
<title>2</title>
<ellipse fill="none" stroke="#000000" cx="197" cy="-102" rx="18" ry="18"/>
<text text-anchor="middle" x="197" y="-98.3" font-family="Times,serif" font-size="14.00" fill="#000000">2</text>
</g>
<!-- 4 -->
<g id="node2" class="node">
<title>4</title>
<ellipse fill="none" stroke="#000000" cx="283" cy="-88" rx="18" ry="18"/>
<text text-anchor="middle" x="283" y="-84.3" font-family="Times,serif" font-size="14.00" fill="#000000">4</text>
</g>
<!-- 2&#45;&gt;4 -->
<g id="edge1" class="edge">
<title>2&#45;&gt;4</title>
<path fill="none" stroke="#000000" d="M213.5334,-94.7503C219.5438,-92.4596 226.4663,-90.211 233,-89 239.9976,-87.703 247.6401,-87.1341 254.7972,-86.9599"/>
<polygon fill="#000000" stroke="#000000" points="254.8083,-90.46 264.8042,-86.9484 254.8002,-83.46 254.8083,-90.46"/>
<text text-anchor="middle" x="240" y="-92.8" font-family="Times,serif" font-size="14.00" fill="#000000">12</text>
</g>
<!-- 5 -->
<g id="node4" class="node">
<title>5</title>
<ellipse fill="none" stroke="#000000" cx="369" cy="-88" rx="18" ry="18"/>
<text text-anchor="middle" x="369" y="-84.3" font-family="Times,serif" font-size="14.00" fill="#000000">5</text>
</g>
<!-- 4&#45;&gt;5 -->
<g id="edge4" class="edge">
<title>4&#45;&gt;5</title>
<path fill="none" stroke="#000000" d="M301.2384,-88C312.6403,-88 327.5658,-88 340.506,-88"/>
<polygon fill="#000000" stroke="#000000" points="340.7879,-91.5001 350.7879,-88 340.7879,-84.5001 340.7879,-91.5001"/>
<text text-anchor="middle" x="326" y="-91.8" font-family="Times,serif" font-size="14.00" fill="#000000">14</text>
</g>
<!-- 1 -->
<g id="node3" class="node">
<title>1</title>
<ellipse fill="none" stroke="#000000" cx="197" cy="-156" rx="18" ry="18"/>
<text text-anchor="middle" x="197" y="-152.3" font-family="Times,serif" font-size="14.00" fill="#000000">1</text>
</g>
<!-- 1&#45;&gt;4 -->
<g id="edge2" class="edge">
<title>1&#45;&gt;4</title>
<path fill="none" stroke="#000000" d="M210.9781,-144.6557C217.6288,-139.2797 225.7044,-132.7832 233,-127 241.9291,-119.9219 251.811,-112.1923 260.4157,-105.495"/>
<polygon fill="#000000" stroke="#000000" points="262.7631,-108.1035 268.5122,-99.2042 258.4682,-102.5759 262.7631,-108.1035"/>
<text text-anchor="middle" x="240" y="-130.8" font-family="Times,serif" font-size="14.00" fill="#000000">1</text>
</g>
<!-- 1&#45;&gt;5 -->
<g id="edge3" class="edge">
<title>1&#45;&gt;5</title>
<path fill="none" stroke="#000000" d="M214.7363,-151.559C224.3629,-149.0173 236.4244,-145.6195 247,-142 286.043,-128.6374 295.5953,-124.4299 333,-107 336.6433,-105.3023 340.4446,-103.4211 344.1539,-101.5218"/>
<polygon fill="#000000" stroke="#000000" points="345.8142,-104.6033 353.0426,-96.8574 342.5614,-98.4049 345.8142,-104.6033"/>
<text text-anchor="middle" x="283" y="-138.8" font-family="Times,serif" font-size="14.00" fill="#000000">21</text>
</g>
<!-- 0 -->
<g id="node5" class="node">
<title>0</title>
<ellipse fill="none" stroke="#000000" cx="18" cy="-130" rx="18" ry="18"/>
<text text-anchor="middle" x="18" y="-126.3" font-family="Times,serif" font-size="14.00" fill="#000000">0</text>
</g>
<!-- 0&#45;&gt;2 -->
<g id="edge5" class="edge">
<title>0&#45;&gt;2</title>
<path fill="none" stroke="#000000" d="M35.5411,-135.6973C63.3495,-143.7157 118.7307,-155.5085 161,-138 168.0738,-135.0699 174.4824,-130.0008 179.866,-124.5757"/>
<polygon fill="#000000" stroke="#000000" points="182.4745,-126.9093 186.5381,-117.1247 177.2597,-122.2396 182.4745,-126.9093"/>
<text text-anchor="middle" x="104" y="-150.8" font-family="Times,serif" font-size="14.00" fill="#000000">8</text>
</g>
<!-- 0&#45;&gt;1 -->
<g id="edge7" class="edge">
<title>0&#45;&gt;1</title>
<path fill="none" stroke="#000000" d="M28.7411,-144.5184C35.1956,-152.1545 44.0717,-160.9543 54,-166 90.9141,-184.7603 140.2499,-174.9106 170.2678,-165.7155"/>
<polygon fill="#000000" stroke="#000000" points="171.6024,-168.9619 180.0278,-162.5383 169.4355,-162.3057 171.6024,-168.9619"/>
<text text-anchor="middle" x="104" y="-179.8" font-family="Times,serif" font-size="14.00" fill="#000000">7</text>
</g>
<!-- 0&#45;&gt;5 -->
<g id="edge8" class="edge">
<title>0&#45;&gt;5</title>
<path fill="none" stroke="#000000" d="M21.1601,-112.1966C28.6128,-76.5929 50.825,0 104,0 104,0 104,0 283,0 318.0069,0 343.436,-36.0602 357.2046,-62.0137"/>
<polygon fill="#000000" stroke="#000000" points="354.1224,-63.6751 361.7458,-71.0327 360.3746,-60.527 354.1224,-63.6751"/>
<text text-anchor="middle" x="197" y="-3.8" font-family="Times,serif" font-size="14.00" fill="#000000">100</text>
</g>
<!-- 3 -->
<g id="node6" class="node">
<title>3</title>
<ellipse fill="none" stroke="#000000" cx="104" cy="-91" rx="18" ry="18"/>
<text text-anchor="middle" x="104" y="-87.3" font-family="Times,serif" font-size="14.00" fill="#000000">3</text>
</g>
<!-- 0&#45;&gt;3 -->
<g id="edge6" class="edge">
<title>0&#45;&gt;3</title>
<path fill="none" stroke="#000000" d="M34.5817,-122.4804C46.9549,-116.8693 64.0931,-109.0973 78.2445,-102.6798"/>
<polygon fill="#000000" stroke="#000000" points="79.8075,-105.8142 87.4692,-98.4965 76.9164,-99.4391 79.8075,-105.8142"/>
<text text-anchor="middle" x="61" y="-115.8" font-family="Times,serif" font-size="14.00" fill="#000000">10</text>
</g>
<!-- 3&#45;&gt;2 -->
<g id="edge11" class="edge">
<title>3&#45;&gt;2</title>
<path fill="none" stroke="#000000" d="M121.3795,-86.2759C132.7579,-83.89 147.8923,-82.0608 161,-85 164.7262,-85.8356 168.5209,-87.1023 172.1809,-88.5752"/>
<polygon fill="#000000" stroke="#000000" points="170.8655,-91.8223 181.4151,-92.8008 173.7783,-85.4571 170.8655,-91.8223"/>
<text text-anchor="middle" x="150.5" y="-88.8" font-family="Times,serif" font-size="14.00" fill="#000000">102</text>
</g>
<!-- 3&#45;&gt;4 -->
<g id="edge9" class="edge">
<title>3&#45;&gt;4</title>
<path fill="none" stroke="#000000" d="M119.8082,-82.3173C134.6036,-74.7198 157.5797,-64.2524 179,-60 194.6937,-56.8845 199.3042,-56.895 215,-60 229.7251,-62.913 245.2674,-69.0561 257.7705,-74.8479"/>
<polygon fill="#000000" stroke="#000000" points="256.5464,-78.1438 267.0725,-79.3492 259.5956,-71.8428 256.5464,-78.1438"/>
<text text-anchor="middle" x="197" y="-63.8" font-family="Times,serif" font-size="14.00" fill="#000000">5</text>
</g>
<!-- 3&#45;&gt;1 -->
<g id="edge10" class="edge">
<title>3&#45;&gt;1</title>
<path fill="none" stroke="#000000" d="M118.9421,-101.4434C133.7208,-111.7726 156.5519,-127.7298 173.7114,-139.723"/>
<polygon fill="#000000" stroke="#000000" points="171.8935,-142.7226 182.095,-145.5825 175.9036,-136.985 171.8935,-142.7226"/>
<text text-anchor="middle" x="150.5" y="-132.8" font-family="Times,serif" font-size="14.00" fill="#000000">11</text>
</g>
</g>
</svg>
