<?xml version="1.0" encoding="UTF-8" standalone="no"?>
<!DOCTYPE svg PUBLIC "-//W3C//DTD SVG 1.1//EN"
 "http://www.w3.org/Graphics/SVG/1.1/DTD/svg11.dtd">
<!-- Generated by graphviz version 2.38.0 (20140413.2041)
 -->
<!-- Title: finite_state_machine Pages: 1 -->
<svg width="320pt" height="360pt"
 viewBox="0.00 0.00 320.12 360.00" xmlns="http://www.w3.org/2000/svg" xmlns:xlink="http://www.w3.org/1999/xlink">
<g id="graph0" class="graph" transform="scale(0.517986 0.517986) rotate(0) translate(4 691)">
<title>finite_state_machine</title>
<polygon fill="white" stroke="none" points="-4,4 -4,-691 614,-691 614,4 -4,4"/>
<!-- 1 -->
<g id="node1" class="node"><title>1</title>
<ellipse fill="none" stroke="black" cx="18" cy="-428" rx="18" ry="18"/>
<text text-anchor="middle" x="18" y="-424.3" font-family="Times,serif" font-size="14.00">1</text>
</g>
<!-- 2 -->
<g id="node2" class="node"><title>2</title>
<ellipse fill="none" stroke="black" cx="97" cy="-439" rx="18" ry="18"/>
<text text-anchor="middle" x="97" y="-435.3" font-family="Times,serif" font-size="14.00">2</text>
</g>
<!-- 1&#45;&gt;2 -->
<g id="edge1" class="edge"><title>1&#45;&gt;2</title>
<path fill="none" stroke="black" d="M36.0888,-430.441C45.7586,-431.823 58.0708,-433.582 69.0155,-435.145"/>
<polygon fill="black" stroke="black" points="68.5645,-438.616 78.959,-436.566 69.5545,-431.686 68.5645,-438.616"/>
<text text-anchor="middle" x="57.5" y="-436.8" font-family="Times,serif" font-size="14.00">0</text>
</g>
<!-- 3 -->
<g id="node3" class="node"><title>3</title>
<ellipse fill="none" stroke="black" cx="341" cy="-343" rx="18" ry="18"/>
<text text-anchor="middle" x="341" y="-339.3" font-family="Times,serif" font-size="14.00">3</text>
</g>
<!-- 1&#45;&gt;3 -->
<g id="edge2" class="edge"><title>1&#45;&gt;3</title>
<path fill="none" stroke="black" d="M27.9553,-443.12C44.683,-469.712 83.5047,-524.106 133,-546 202.94,-576.937 246.608,-600.387 305,-551 331.82,-528.316 338.098,-422.81 339.561,-371.361"/>
<polygon fill="black" stroke="black" points="343.062,-371.334 339.805,-361.252 336.064,-371.165 343.062,-371.334"/>
<text text-anchor="middle" x="176" y="-574.8" font-family="Times,serif" font-size="14.00">0</text>
</g>
<!-- 0 -->
<g id="node4" class="node"><title>0</title>
<ellipse fill="none" stroke="black" cx="513" cy="-513" rx="18" ry="18"/>
<text text-anchor="middle" x="513" y="-509.3" font-family="Times,serif" font-size="14.00">0</text>
</g>
<!-- 1&#45;&gt;0 -->
<g id="edge3" class="edge"><title>1&#45;&gt;0</title>
<path fill="none" stroke="black" d="M20.507,-446.132C24.4274,-490.358 35.9145,-602.519 54,-635 66.102,-656.735 71.123,-672 96,-672 96,-672 96,-672 428,-672 486.528,-672 504.382,-586.732 509.747,-541.081"/>
<polygon fill="black" stroke="black" points="513.249,-541.241 510.811,-530.93 506.287,-540.511 513.249,-541.241"/>
<text text-anchor="middle" x="262" y="-675.8" font-family="Times,serif" font-size="14.00">28</text>
</g>
<!-- 4 -->
<g id="node5" class="node"><title>4</title>
<ellipse fill="none" stroke="black" cx="176" cy="-269" rx="18" ry="18"/>
<text text-anchor="middle" x="176" y="-265.3" font-family="Times,serif" font-size="14.00">4</text>
</g>
<!-- 1&#45;&gt;4 -->
<g id="edge4" class="edge"><title>1&#45;&gt;4</title>
<path fill="none" stroke="black" d="M20.3383,-409.89C23.0613,-382.417 31.0835,-329.354 54,-291 61.7441,-278.039 64.934,-273.486 79,-268 101.245,-259.324 128.655,-260.671 148.484,-263.54"/>
<polygon fill="black" stroke="black" points="147.927,-266.996 158.366,-265.186 149.077,-260.091 147.927,-266.996"/>
<text text-anchor="middle" x="97" y="-271.8" font-family="Times,serif" font-size="14.00">3</text>
</g>
<!-- 2&#45;&gt;1 -->
<g id="edge19" class="edge"><title>2&#45;&gt;1</title>
<path fill="none" stroke="black" d="M83.4473,-427.119C77.2085,-422.024 69.2488,-416.643 61,-414 55.0918,-412.107 48.7339,-412.799 42.7971,-414.635"/>
<polygon fill="black" stroke="black" points="41.254,-411.486 33.3574,-418.55 43.9354,-417.952 41.254,-411.486"/>
<text text-anchor="middle" x="57.5" y="-417.8" font-family="Times,serif" font-size="14.00">8</text>
</g>
<!-- 2&#45;&gt;3 -->
<g id="edge22" class="edge"><title>2&#45;&gt;3</title>
<path fill="none" stroke="black" d="M114.749,-435.907C161.143,-427.242 288.967,-402.663 305,-392 314.14,-385.921 321.67,-376.586 327.374,-367.688"/>
<polygon fill="black" stroke="black" points="330.39,-369.463 332.46,-359.072 324.362,-365.904 330.39,-369.463"/>
<text text-anchor="middle" x="219" y="-419.8" font-family="Times,serif" font-size="14.00">15</text>
</g>
<!-- 2&#45;&gt;0 -->
<g id="edge21" class="edge"><title>2&#45;&gt;0</title>
<path fill="none" stroke="black" d="M108.538,-453.164C121.989,-469.46 146.908,-494 175,-494 175,-494 175,-494 428,-494 447.747,-494 469.476,-499.057 485.886,-503.953"/>
<polygon fill="black" stroke="black" points="485.238,-507.419 495.827,-507.092 487.346,-500.743 485.238,-507.419"/>
<text text-anchor="middle" x="301.5" y="-497.8" font-family="Times,serif" font-size="14.00">1</text>
</g>
<!-- 2&#45;&gt;4 -->
<g id="edge20" class="edge"><title>2&#45;&gt;4</title>
<path fill="none" stroke="black" d="M102.749,-421.765C108.664,-401.301 119.636,-366.373 133,-338 140.574,-321.919 150.944,-304.847 159.485,-291.708"/>
<polygon fill="black" stroke="black" points="162.448,-293.571 165.048,-283.3 156.611,-289.708 162.448,-293.571"/>
<text text-anchor="middle" x="136.5" y="-341.8" font-family="Times,serif" font-size="14.00">2</text>
</g>
<!-- 3&#45;&gt;1 -->
<g id="edge26" class="edge"><title>3&#45;&gt;1</title>
<path fill="none" stroke="black" d="M322.929,-345.436C287.307,-350.69 202.588,-364.076 133,-382 97.2045,-391.22 87.7731,-392.977 54,-408 50.2233,-409.68 46.3263,-411.649 42.5655,-413.685"/>
<polygon fill="black" stroke="black" points="40.6084,-410.772 33.6437,-418.756 44.0671,-416.857 40.6084,-410.772"/>
<text text-anchor="middle" x="176" y="-378.8" font-family="Times,serif" font-size="14.00">10</text>
</g>
<!-- 3&#45;&gt;2 -->
<g id="edge27" class="edge"><title>3&#45;&gt;2</title>
<path fill="none" stroke="black" d="M334.168,-359.827C328.559,-373.939 318.875,-393.841 305,-407 296.058,-415.481 291.538,-414.667 280,-419 220.969,-441.168 203.013,-439.669 140,-442 135.27,-442.175 130.246,-442.069 125.379,-441.814"/>
<polygon fill="black" stroke="black" points="125.379,-438.305 115.151,-441.067 124.869,-445.286 125.379,-438.305"/>
<text text-anchor="middle" x="219" y="-440.8" font-family="Times,serif" font-size="14.00">11</text>
</g>
<!-- 3&#45;&gt;4 -->
<g id="edge24" class="edge"><title>3&#45;&gt;4</title>
<path fill="none" stroke="black" d="M327.26,-330.457C315.792,-319.83 298.018,-304.937 280,-296 255.774,-283.984 225.602,-276.884 204.19,-273.006"/>
<polygon fill="black" stroke="black" points="204.603,-269.526 194.159,-271.308 203.434,-276.428 204.603,-269.526"/>
<text text-anchor="middle" x="262" y="-299.8" font-family="Times,serif" font-size="14.00">20</text>
</g>
<!-- 7 -->
<g id="node6" class="node"><title>7</title>
<ellipse fill="none" stroke="black" cx="513" cy="-220" rx="18" ry="18"/>
<text text-anchor="middle" x="513" y="-216.3" font-family="Times,serif" font-size="14.00">7</text>
</g>
<!-- 3&#45;&gt;7 -->
<g id="edge25" class="edge"><title>3&#45;&gt;7</title>
<path fill="none" stroke="black" d="M358.817,-338.885C386.365,-331.423 441.581,-313.354 477,-281 487.494,-271.414 495.681,-257.934 501.489,-246.082"/>
<polygon fill="black" stroke="black" points="504.835,-247.181 505.808,-236.631 498.468,-244.272 504.835,-247.181"/>
<text text-anchor="middle" x="427" y="-324.8" font-family="Times,serif" font-size="14.00">1</text>
</g>
<!-- 5 -->
<g id="node7" class="node"><title>5</title>
<ellipse fill="none" stroke="black" cx="262" cy="-210" rx="18" ry="18"/>
<text text-anchor="middle" x="262" y="-206.3" font-family="Times,serif" font-size="14.00">5</text>
</g>
<!-- 3&#45;&gt;5 -->
<g id="edge23" class="edge"><title>3&#45;&gt;5</title>
<path fill="none" stroke="black" d="M335.833,-325.678C330.656,-306.362 320.558,-274.721 305,-251 299.336,-242.365 291.575,-234.141 284.264,-227.356"/>
<polygon fill="black" stroke="black" points="286.439,-224.608 276.628,-220.608 281.803,-229.853 286.439,-224.608"/>
<text text-anchor="middle" x="301.5" y="-254.8" font-family="Times,serif" font-size="14.00">8</text>
</g>
<!-- 6 -->
<g id="node9" class="node"><title>6</title>
<ellipse fill="none" stroke="black" cx="427" cy="-389" rx="18" ry="18"/>
<text text-anchor="middle" x="427" y="-385.3" font-family="Times,serif" font-size="14.00">6</text>
</g>
<!-- 3&#45;&gt;6 -->
<g id="edge28" class="edge"><title>3&#45;&gt;6</title>
<path fill="none" stroke="black" d="M355.934,-353.404C362.206,-357.862 369.804,-362.961 377,-367 384.433,-371.173 392.804,-375.17 400.497,-378.586"/>
<polygon fill="black" stroke="black" points="399.187,-381.832 409.756,-382.57 401.954,-375.403 399.187,-381.832"/>
<text text-anchor="middle" x="384" y="-376.8" font-family="Times,serif" font-size="14.00">3</text>
</g>
<!-- 0&#45;&gt;1 -->
<g id="edge17" class="edge"><title>0&#45;&gt;1</title>
<path fill="none" stroke="black" d="M507.279,-530.352C497.798,-560.881 473.369,-621 428,-621 96,-621 96,-621 96,-621 25.9687,-621 17.8705,-510.02 18.0469,-456.373"/>
<polygon fill="black" stroke="black" points="21.5494,-456.203 18.1837,-446.157 14.55,-456.109 21.5494,-456.203"/>
<text text-anchor="middle" x="262" y="-624.8" font-family="Times,serif" font-size="14.00">10</text>
</g>
<!-- 0&#45;&gt;2 -->
<g id="edge18" class="edge"><title>0&#45;&gt;2</title>
<path fill="none" stroke="black" d="M495.827,-518.908C479.09,-524.485 452.072,-532 428,-532 175,-532 175,-532 175,-532 140.276,-532 118.249,-493.058 107.027,-465.572"/>
<polygon fill="black" stroke="black" points="110.227,-464.141 103.378,-456.058 103.691,-466.648 110.227,-464.141"/>
<text text-anchor="middle" x="301.5" y="-535.8" font-family="Times,serif" font-size="14.00">0</text>
</g>
<!-- 0&#45;&gt;6 -->
<g id="edge16" class="edge"><title>0&#45;&gt;6</title>
<path fill="none" stroke="black" d="M507.785,-495.486C502.725,-477.076 492.877,-447.936 477,-427 470.072,-417.865 460.428,-409.754 451.527,-403.396"/>
<polygon fill="black" stroke="black" points="453.25,-400.336 443.001,-397.649 449.337,-406.141 453.25,-400.336"/>
<text text-anchor="middle" x="470" y="-430.8" font-family="Times,serif" font-size="14.00">0</text>
</g>
<!-- 4&#45;&gt;1 -->
<g id="edge8" class="edge"><title>4&#45;&gt;1</title>
<path fill="none" stroke="black" d="M159.302,-276.606C134.163,-289.463 84.5998,-317.678 54,-354 42.3197,-367.865 33.5895,-386.286 27.7695,-401.28"/>
<polygon fill="black" stroke="black" points="24.3567,-400.421 24.2047,-411.015 30.9299,-402.828 24.3567,-400.421"/>
<text text-anchor="middle" x="97" y="-331.8" font-family="Times,serif" font-size="14.00">10</text>
</g>
<!-- 4&#45;&gt;2 -->
<g id="edge6" class="edge"><title>4&#45;&gt;2</title>
<path fill="none" stroke="black" d="M168.883,-285.74C162.235,-303.592 151.073,-332.595 140,-357 131.134,-376.541 120.026,-398.12 111.461,-414.235"/>
<polygon fill="black" stroke="black" points="108.137,-413.028 106.499,-423.496 114.307,-416.334 108.137,-413.028"/>
<text text-anchor="middle" x="136.5" y="-373.8" font-family="Times,serif" font-size="14.00">0</text>
</g>
<!-- 4&#45;&gt;3 -->
<g id="edge5" class="edge"><title>4&#45;&gt;3</title>
<path fill="none" stroke="black" d="M189.482,-281.198C195.827,-286.894 203.896,-293.414 212,-298 244.757,-316.538 286.49,-329.466 313.232,-336.565"/>
<polygon fill="black" stroke="black" points="312.476,-339.984 323.033,-339.083 314.218,-333.205 312.476,-339.984"/>
<text text-anchor="middle" x="262" y="-329.8" font-family="Times,serif" font-size="14.00">0</text>
</g>
<!-- 4&#45;&gt;7 -->
<g id="edge7" class="edge"><title>4&#45;&gt;7</title>
<path fill="none" stroke="black" d="M184.435,-252.76C202.152,-216.585 250.833,-130.989 323,-111 349.812,-103.574 432.916,-110.832 445,-118 473.668,-135.006 492.404,-169.632 502.588,-193.799"/>
<polygon fill="black" stroke="black" points="499.352,-195.133 506.315,-203.119 505.852,-192.534 499.352,-195.133"/>
<text text-anchor="middle" x="341" y="-114.8" font-family="Times,serif" font-size="14.00">0</text>
</g>
<!-- 4&#45;&gt;5 -->
<g id="edge9" class="edge"><title>4&#45;&gt;5</title>
<path fill="none" stroke="black" d="M182.884,-252.252C188.328,-239.453 197.753,-222.593 212,-214 218.458,-210.105 226.295,-208.422 233.79,-207.888"/>
<polygon fill="black" stroke="black" points="234.014,-211.386 243.979,-207.788 233.945,-204.387 234.014,-211.386"/>
<text text-anchor="middle" x="219" y="-217.8" font-family="Times,serif" font-size="14.00">0</text>
</g>
<!-- 7&#45;&gt;3 -->
<g id="edge29" class="edge"><title>7&#45;&gt;3</title>
<path fill="none" stroke="black" d="M496.912,-228.791C476.458,-240.902 439.04,-263.756 409,-286 392.738,-298.042 375.361,-312.888 362.38,-324.41"/>
<polygon fill="black" stroke="black" points="360.027,-321.819 354.915,-331.099 364.698,-327.033 360.027,-321.819"/>
<text text-anchor="middle" x="427" y="-289.8" font-family="Times,serif" font-size="14.00">0</text>
</g>
<!-- 7&#45;&gt;4 -->
<g id="edge31" class="edge"><title>7&#45;&gt;4</title>
<path fill="none" stroke="black" d="M511.514,-202.034C509.264,-157.578 496.766,-46 428,-46 261,-46 261,-46 261,-46 219.728,-46 191.765,-181.457 181.435,-241.226"/>
<polygon fill="black" stroke="black" points="177.977,-240.685 179.766,-251.128 184.88,-241.849 177.977,-240.685"/>
<text text-anchor="middle" x="341" y="-49.8" font-family="Times,serif" font-size="14.00">7</text>
</g>
<!-- 7&#45;&gt;5 -->
<g id="edge30" class="edge"><title>7&#45;&gt;5</title>
<path fill="none" stroke="black" d="M495.521,-214.48C470.234,-206.601 420.244,-193.355 377,-196 347.103,-197.829 313.042,-202.332 289.997,-205.741"/>
<polygon fill="black" stroke="black" points="289.3,-202.306 279.937,-207.263 290.348,-209.227 289.3,-202.306"/>
<text text-anchor="middle" x="384" y="-199.8" font-family="Times,serif" font-size="14.00">0</text>
</g>
<!-- 8 -->
<g id="node8" class="node"><title>8</title>
<ellipse fill="none" stroke="black" cx="592" cy="-157" rx="18" ry="18"/>
<text text-anchor="middle" x="592" y="-153.3" font-family="Times,serif" font-size="14.00">8</text>
</g>
<!-- 7&#45;&gt;8 -->
<g id="edge32" class="edge"><title>7&#45;&gt;8</title>
<path fill="none" stroke="black" d="M528.951,-211.532C537.238,-206.562 547.544,-199.914 556,-193 561.622,-188.403 567.292,-182.985 572.383,-177.768"/>
<polygon fill="black" stroke="black" points="575.033,-180.06 579.354,-170.386 569.943,-175.253 575.033,-180.06"/>
<text text-anchor="middle" x="552.5" y="-201.8" font-family="Times,serif" font-size="14.00">1</text>
</g>
<!-- 7&#45;&gt;6 -->
<g id="edge33" class="edge"><title>7&#45;&gt;6</title>
<path fill="none" stroke="black" d="M508.37,-237.618C503.369,-259.67 493.106,-298.169 477,-328 469.003,-342.812 457.266,-357.578 447.284,-368.871"/>
<polygon fill="black" stroke="black" points="444.546,-366.68 440.405,-376.432 449.723,-371.391 444.546,-366.68"/>
<text text-anchor="middle" x="470" y="-352.8" font-family="Times,serif" font-size="14.00">23</text>
</g>
<!-- 5&#45;&gt;3 -->
<g id="edge10" class="edge"><title>5&#45;&gt;3</title>
<path fill="none" stroke="black" d="M272.102,-225.183C280.67,-239.523 293.82,-261.657 305,-281 312.152,-293.374 319.983,-307.218 326.421,-318.68"/>
<polygon fill="black" stroke="black" points="323.513,-320.651 331.456,-327.663 329.62,-317.229 323.513,-320.651"/>
<text text-anchor="middle" x="301.5" y="-284.8" font-family="Times,serif" font-size="14.00">0</text>
</g>
<!-- 5&#45;&gt;4 -->
<g id="edge12" class="edge"><title>5&#45;&gt;4</title>
<path fill="none" stroke="black" d="M246.681,-220.058C233.745,-229.143 214.495,-242.664 199.504,-253.194"/>
<polygon fill="black" stroke="black" points="197.421,-250.38 191.249,-258.991 201.444,-256.108 197.421,-250.38"/>
<text text-anchor="middle" x="219" y="-247.8" font-family="Times,serif" font-size="14.00">1</text>
</g>
<!-- 5&#45;&gt;7 -->
<g id="edge11" class="edge"><title>5&#45;&gt;7</title>
<path fill="none" stroke="black" d="M280.115,-210.687C322.582,-212.393 433.077,-216.83 484.691,-218.903"/>
<polygon fill="black" stroke="black" points="484.633,-222.404 494.765,-219.308 484.914,-215.409 484.633,-222.404"/>
<text text-anchor="middle" x="384" y="-219.8" font-family="Times,serif" font-size="14.00">7</text>
</g>
<!-- 5&#45;&gt;8 -->
<g id="edge13" class="edge"><title>5&#45;&gt;8</title>
<path fill="none" stroke="black" d="M271.133,-194.465C283.177,-173.842 307.842,-140 340,-140 340,-140 340,-140 514,-140 531.185,-140 550.031,-144.088 564.777,-148.254"/>
<polygon fill="black" stroke="black" points="564.123,-151.712 574.707,-151.245 566.141,-145.01 564.123,-151.712"/>
<text text-anchor="middle" x="427" y="-143.8" font-family="Times,serif" font-size="14.00">4</text>
</g>
<!-- 8&#45;&gt;7 -->
<g id="edge15" class="edge"><title>8&#45;&gt;7</title>
<path fill="none" stroke="black" d="M574.933,-163.162C566.701,-166.766 556.797,-171.825 549,-178 542.094,-183.47 535.595,-190.494 530.116,-197.226"/>
<polygon fill="black" stroke="black" points="527.102,-195.403 523.767,-205.459 532.645,-199.678 527.102,-195.403"/>
<text text-anchor="middle" x="552.5" y="-181.8" font-family="Times,serif" font-size="14.00">1</text>
</g>
<!-- 8&#45;&gt;5 -->
<g id="edge14" class="edge"><title>8&#45;&gt;5</title>
<path fill="none" stroke="black" d="M590.353,-138.99C587.813,-97.7513 575.324,-0 514,-0 340,-0 340,-0 340,-0 301.695,-0 276.699,-124.718 267.249,-181.927"/>
<polygon fill="black" stroke="black" points="263.746,-181.667 265.616,-192.096 270.657,-182.777 263.746,-181.667"/>
<text text-anchor="middle" x="427" y="-3.8" font-family="Times,serif" font-size="14.00">1</text>
</g>
<!-- 6&#45;&gt;3 -->
<g id="edge35" class="edge"><title>6&#45;&gt;3</title>
<path fill="none" stroke="black" d="M417.021,-373.499C410.904,-364.458 401.941,-353.737 391,-348 384.411,-344.545 376.642,-342.861 369.255,-342.143"/>
<polygon fill="black" stroke="black" points="369.378,-338.645 359.23,-341.688 369.061,-345.638 369.378,-338.645"/>
<text text-anchor="middle" x="384" y="-351.8" font-family="Times,serif" font-size="14.00">21</text>
</g>
<!-- 6&#45;&gt;0 -->
<g id="edge34" class="edge"><title>6&#45;&gt;0</title>
<path fill="none" stroke="black" d="M437.725,-403.903C444.704,-414.554 454.362,-429.206 463,-442 473.931,-458.19 486.443,-476.313 496.087,-490.196"/>
<polygon fill="black" stroke="black" points="493.381,-492.435 501.966,-498.645 499.127,-488.437 493.381,-492.435"/>
<text text-anchor="middle" x="470" y="-464.8" font-family="Times,serif" font-size="14.00">2</text>
</g>
<!-- 6&#45;&gt;7 -->
<g id="edge36" class="edge"><title>6&#45;&gt;7</title>
<path fill="none" stroke="black" d="M444.885,-385.108C455.603,-381.781 468.928,-375.909 477,-366 504.511,-332.23 511.019,-280.336 512.222,-248.369"/>
<polygon fill="black" stroke="black" points="515.721,-248.424 512.449,-238.348 508.723,-248.266 515.721,-248.424"/>
<text text-anchor="middle" x="470" y="-380.8" font-family="Times,serif" font-size="14.00">4</text>
</g>
</g>
</svg>
