<?xml version="1.0" encoding="UTF-8" standalone="no"?>
<!DOCTYPE svg PUBLIC "-//W3C//DTD SVG 1.1//EN"
 "http://www.w3.org/Graphics/SVG/1.1/DTD/svg11.dtd">
<!-- Generated by graphviz version 2.40.1 (20161225.0304)
 -->
<!-- Title: finite_state_machine Pages: 1 -->
<svg width="576pt" height="289pt"
 viewBox="0.00 0.00 576.00 288.91" xmlns="http://www.w3.org/2000/svg" xmlns:xlink="http://www.w3.org/1999/xlink">
<g id="graph0" class="graph" transform="scale(.9114 .9114) rotate(0) translate(4 313)">
<title>finite_state_machine</title>
<polygon fill="#ffffff" stroke="transparent" points="-4,4 -4,-313 628,-313 628,4 -4,4"/>
<!-- 8 -->
<g id="node1" class="node">
<title>8</title>
<ellipse fill="none" stroke="#000000" cx="527" cy="-263" rx="18" ry="18"/>
<text text-anchor="middle" x="527" y="-259.3" font-family="Times,serif" font-size="14.00" fill="#000000">8</text>
</g>
<!-- 7 -->
<g id="node2" class="node">
<title>7</title>
<ellipse fill="none" stroke="#000000" cx="606" cy="-217" rx="18" ry="18"/>
<text text-anchor="middle" x="606" y="-213.3" font-family="Times,serif" font-size="14.00" fill="#000000">7</text>
</g>
<!-- 8&#45;&gt;7 -->
<g id="edge1" class="edge">
<title>8&#45;&gt;7</title>
<path fill="none" stroke="#000000" d="M542.6079,-253.9119C553.7526,-247.4225 568.962,-238.5665 581.6893,-231.1556"/>
<polygon fill="#000000" stroke="#000000" points="583.544,-234.1258 590.4246,-226.0692 580.0216,-228.0766 583.544,-234.1258"/>
<text text-anchor="middle" x="566.5" y="-244.8" font-family="Times,serif" font-size="14.00" fill="#000000">2</text>
</g>
<!-- 5 -->
<g id="node3" class="node">
<title>5</title>
<ellipse fill="none" stroke="#000000" cx="448" cy="-263" rx="18" ry="18"/>
<text text-anchor="middle" x="448" y="-259.3" font-family="Times,serif" font-size="14.00" fill="#000000">5</text>
</g>
<!-- 5&#45;&gt;8 -->
<g id="edge2" class="edge">
<title>5&#45;&gt;8</title>
<path fill="none" stroke="#000000" d="M466.3228,-263C475.8947,-263 487.8223,-263 498.5629,-263"/>
<polygon fill="#000000" stroke="#000000" points="498.7766,-266.5001 508.7766,-263 498.7766,-259.5001 498.7766,-266.5001"/>
<text text-anchor="middle" x="487.5" y="-266.8" font-family="Times,serif" font-size="14.00" fill="#000000">5</text>
</g>
<!-- 5&#45;&gt;7 -->
<g id="edge3" class="edge">
<title>5&#45;&gt;7</title>
<path fill="none" stroke="#000000" d="M463.0001,-273.5012C482.5372,-285.7796 517.4469,-302.8826 545,-290 565.9552,-280.2023 582.2401,-259.2738 592.6924,-242.3272"/>
<polygon fill="#000000" stroke="#000000" points="595.8742,-243.8189 597.8918,-233.418 589.8285,-240.2906 595.8742,-243.8189"/>
<text text-anchor="middle" x="527" y="-297.8" font-family="Times,serif" font-size="14.00" fill="#000000">7</text>
</g>
<!-- 4 -->
<g id="node4" class="node">
<title>4</title>
<ellipse fill="none" stroke="#000000" cx="190" cy="-185" rx="18" ry="18"/>
<text text-anchor="middle" x="190" y="-181.3" font-family="Times,serif" font-size="14.00" fill="#000000">4</text>
</g>
<!-- 4&#45;&gt;7 -->
<g id="edge5" class="edge">
<title>4&#45;&gt;7</title>
<path fill="none" stroke="#000000" d="M207.9319,-187.125C213.6966,-187.7726 220.1139,-188.4563 226,-189 357.1148,-201.1105 514.0698,-211.316 577.415,-215.2574"/>
<polygon fill="#000000" stroke="#000000" points="577.5898,-218.7748 587.7867,-215.8987 578.0218,-211.7881 577.5898,-218.7748"/>
<text text-anchor="middle" x="405" y="-207.8" font-family="Times,serif" font-size="14.00" fill="#000000">7</text>
</g>
<!-- 4&#45;&gt;5 -->
<g id="edge6" class="edge">
<title>4&#45;&gt;5</title>
<path fill="none" stroke="#000000" d="M197.9932,-201.5549C204.1104,-212.3432 213.603,-225.7229 226,-233 287.8162,-269.2863 375.6894,-268.8742 420.061,-265.7972"/>
<polygon fill="#000000" stroke="#000000" points="420.4182,-269.28 430.1104,-265.0008 419.8651,-262.3019 420.4182,-269.28"/>
<text text-anchor="middle" x="319" y="-266.8" font-family="Times,serif" font-size="14.00" fill="#000000">1</text>
</g>
<!-- 2 -->
<g id="node5" class="node">
<title>2</title>
<ellipse fill="none" stroke="#000000" cx="276" cy="-122" rx="18" ry="18"/>
<text text-anchor="middle" x="276" y="-118.3" font-family="Times,serif" font-size="14.00" fill="#000000">2</text>
</g>
<!-- 4&#45;&gt;2 -->
<g id="edge4" class="edge">
<title>4&#45;&gt;2</title>
<path fill="none" stroke="#000000" d="M203.8123,-173.4394C210.4268,-168.0161 218.5196,-161.5422 226,-156 234.5137,-149.6923 244.0868,-143.0729 252.5604,-137.3683"/>
<polygon fill="#000000" stroke="#000000" points="254.5239,-140.2658 260.9022,-131.806 250.6404,-134.4418 254.5239,-140.2658"/>
<text text-anchor="middle" x="233" y="-159.8" font-family="Times,serif" font-size="14.00" fill="#000000">2</text>
</g>
<!-- 3 -->
<g id="node9" class="node">
<title>3</title>
<ellipse fill="none" stroke="#000000" cx="362" cy="-147" rx="18" ry="18"/>
<text text-anchor="middle" x="362" y="-143.3" font-family="Times,serif" font-size="14.00" fill="#000000">3</text>
</g>
<!-- 2&#45;&gt;3 -->
<g id="edge18" class="edge">
<title>2&#45;&gt;3</title>
<path fill="none" stroke="#000000" d="M293.4034,-127.0591C305.2932,-130.5155 321.2883,-135.1652 334.8421,-139.1053"/>
<polygon fill="#000000" stroke="#000000" points="334.043,-142.5178 344.6225,-141.9484 335.997,-135.796 334.043,-142.5178"/>
<text text-anchor="middle" x="319" y="-138.8" font-family="Times,serif" font-size="14.00" fill="#000000">26</text>
</g>
<!-- 0 -->
<g id="node6" class="node">
<title>0</title>
<ellipse fill="none" stroke="#000000" cx="18" cy="-38" rx="18" ry="18"/>
<text text-anchor="middle" x="18" y="-34.3" font-family="Times,serif" font-size="14.00" fill="#000000">0</text>
</g>
<!-- 0&#45;&gt;2 -->
<g id="edge9" class="edge">
<title>0&#45;&gt;2</title>
<path fill="none" stroke="#000000" d="M36.0681,-37.5048C75.7671,-37.2114 172.4375,-40.9048 240,-80 247.8863,-84.5634 254.8718,-91.5131 260.5409,-98.4534"/>
<polygon fill="#000000" stroke="#000000" points="257.7542,-100.5711 266.5664,-106.4529 263.3455,-96.3595 257.7542,-100.5711"/>
<text text-anchor="middle" x="147" y="-51.8" font-family="Times,serif" font-size="14.00" fill="#000000">1</text>
</g>
<!-- 6 -->
<g id="node7" class="node">
<title>6</title>
<ellipse fill="none" stroke="#000000" cx="448" cy="-102" rx="18" ry="18"/>
<text text-anchor="middle" x="448" y="-98.3" font-family="Times,serif" font-size="14.00" fill="#000000">6</text>
</g>
<!-- 0&#45;&gt;6 -->
<g id="edge7" class="edge">
<title>0&#45;&gt;6</title>
<path fill="none" stroke="#000000" d="M32.6651,-27.0088C49.126,-15.786 77.0668,0 104,0 104,0 104,0 362,0 401.3312,0 426.3228,-44.8766 438.6932,-75.0965"/>
<polygon fill="#000000" stroke="#000000" points="435.5349,-76.6333 442.4071,-84.6971 442.0635,-74.1078 435.5349,-76.6333"/>
<text text-anchor="middle" x="233" y="-3.8" font-family="Times,serif" font-size="14.00" fill="#000000">2</text>
</g>
<!-- 1 -->
<g id="node8" class="node">
<title>1</title>
<ellipse fill="none" stroke="#000000" cx="104" cy="-103" rx="18" ry="18"/>
<text text-anchor="middle" x="104" y="-99.3" font-family="Times,serif" font-size="14.00" fill="#000000">1</text>
</g>
<!-- 0&#45;&gt;1 -->
<g id="edge8" class="edge">
<title>0&#45;&gt;1</title>
<path fill="none" stroke="#000000" d="M32.5887,-49.0264C46.0129,-59.1726 66.1241,-74.3728 81.5866,-86.0597"/>
<polygon fill="#000000" stroke="#000000" points="79.5386,-88.899 89.6267,-92.1365 83.7594,-83.3146 79.5386,-88.899"/>
<text text-anchor="middle" x="61" y="-77.8" font-family="Times,serif" font-size="14.00" fill="#000000">38</text>
</g>
<!-- 6&#45;&gt;7 -->
<g id="edge14" class="edge">
<title>6&#45;&gt;7</title>
<path fill="none" stroke="#000000" d="M466.1027,-100.964C493.1485,-100.5019 543.7275,-104.0336 570,-134 584.0224,-149.9939 593.2833,-172.2926 598.8963,-189.7501"/>
<polygon fill="#000000" stroke="#000000" points="595.5611,-190.8133 601.7881,-199.3851 602.2657,-188.801 595.5611,-190.8133"/>
<text text-anchor="middle" x="527" y="-118.8" font-family="Times,serif" font-size="14.00" fill="#000000">27</text>
</g>
<!-- 1&#45;&gt;4 -->
<g id="edge17" class="edge">
<title>1&#45;&gt;4</title>
<path fill="none" stroke="#000000" d="M117.0615,-115.454C130.9526,-128.699 153.1188,-149.8342 169.3732,-165.3326"/>
<polygon fill="#000000" stroke="#000000" points="167.1629,-168.0611 176.8155,-172.4288 171.9934,-162.9949 167.1629,-168.0611"/>
<text text-anchor="middle" x="147" y="-151.8" font-family="Times,serif" font-size="14.00" fill="#000000">13</text>
</g>
<!-- 1&#45;&gt;2 -->
<g id="edge15" class="edge">
<title>1&#45;&gt;2</title>
<path fill="none" stroke="#000000" d="M122.0819,-104.9974C152.019,-108.3044 212.1028,-114.9416 247.7011,-118.874"/>
<polygon fill="#000000" stroke="#000000" points="247.5784,-122.3816 257.9023,-120.0008 248.347,-115.4239 247.5784,-122.3816"/>
<text text-anchor="middle" x="190" y="-117.8" font-family="Times,serif" font-size="14.00" fill="#000000">8</text>
</g>
<!-- 1&#45;&gt;3 -->
<g id="edge16" class="edge">
<title>1&#45;&gt;3</title>
<path fill="none" stroke="#000000" d="M121.3598,-98.2056C155.501,-89.6461 233.3324,-74.462 294,-95 312.2451,-101.1766 329.4459,-114.4279 341.9831,-126.007"/>
<polygon fill="#000000" stroke="#000000" points="339.8894,-128.851 349.5125,-133.2835 344.7539,-123.8174 339.8894,-128.851"/>
<text text-anchor="middle" x="233" y="-88.8" font-family="Times,serif" font-size="14.00" fill="#000000">10</text>
</g>
<!-- 3&#45;&gt;7 -->
<g id="edge11" class="edge">
<title>3&#45;&gt;7</title>
<path fill="none" stroke="#000000" d="M379.7203,-151.0868C415.8602,-159.5711 500.5304,-180.214 570,-203 573.186,-204.045 576.5007,-205.2159 579.7724,-206.4235"/>
<polygon fill="#000000" stroke="#000000" points="578.6961,-209.7592 589.2864,-210.0681 581.2002,-203.2224 578.6961,-209.7592"/>
<text text-anchor="middle" x="487.5" y="-181.8" font-family="Times,serif" font-size="14.00" fill="#000000">1</text>
</g>
<!-- 3&#45;&gt;5 -->
<g id="edge13" class="edge">
<title>3&#45;&gt;5</title>
<path fill="none" stroke="#000000" d="M378.1498,-155.2602C388.8989,-161.4257 402.7019,-170.7146 412,-182 424.9657,-197.7369 434.1538,-218.8825 440.0014,-235.6223"/>
<polygon fill="#000000" stroke="#000000" points="436.7644,-236.9829 443.2146,-245.388 443.4137,-234.7951 436.7644,-236.9829"/>
<text text-anchor="middle" x="405" y="-185.8" font-family="Times,serif" font-size="14.00" fill="#000000">8</text>
</g>
<!-- 3&#45;&gt;4 -->
<g id="edge12" class="edge">
<title>3&#45;&gt;4</title>
<path fill="none" stroke="#000000" d="M344.3374,-150.9022C314.4567,-157.5038 253.7042,-170.9258 217.9804,-178.8183"/>
<polygon fill="#000000" stroke="#000000" points="216.7687,-175.5015 207.7592,-181.0765 218.2788,-182.3367 216.7687,-175.5015"/>
<text text-anchor="middle" x="276" y="-172.8" font-family="Times,serif" font-size="14.00" fill="#000000">20</text>
</g>
<!-- 3&#45;&gt;6 -->
<g id="edge10" class="edge">
<title>3&#45;&gt;6</title>
<path fill="none" stroke="#000000" d="M375.6073,-134.6656C382.0465,-129.3039 390.0544,-123.283 398,-119 404.9913,-115.2314 412.9761,-112.0668 420.4817,-109.5288"/>
<polygon fill="#000000" stroke="#000000" points="421.785,-112.7883 430.2811,-106.4586 419.6921,-106.1085 421.785,-112.7883"/>
<text text-anchor="middle" x="405" y="-122.8" font-family="Times,serif" font-size="14.00" fill="#000000">24</text>
</g>
</g>
</svg>
