<?xml version="1.0" encoding="UTF-8" standalone="no"?>
<!DOCTYPE svg PUBLIC "-//W3C//DTD SVG 1.1//EN"
 "http://www.w3.org/Graphics/SVG/1.1/DTD/svg11.dtd">
<!-- Generated by graphviz version 2.40.1 (20161225.0304)
 -->
<!-- Title: finite_state_machine Pages: 1 -->
<svg width="371pt" height="360pt"
 viewBox="0.00 0.00 371.30 360.00" xmlns="http://www.w3.org/2000/svg" xmlns:xlink="http://www.w3.org/1999/xlink">
<g id="graph0" class="graph" transform="scale(.8072 .8072) rotate(0) translate(4 442)">
<title>finite_state_machine</title>
<polygon fill="#ffffff" stroke="transparent" points="-4,4 -4,-442 456,-442 456,4 -4,4"/>
<!-- 5 -->
<g id="node1" class="node">
<title>5</title>
<ellipse fill="none" stroke="#000000" cx="18" cy="-70" rx="18" ry="18"/>
<text text-anchor="middle" x="18" y="-66.3" font-family="Times,serif" font-size="14.00" fill="#000000">5</text>
</g>
<!-- 4 -->
<g id="node2" class="node">
<title>4</title>
<ellipse fill="none" stroke="#000000" cx="104" cy="-159" rx="18" ry="18"/>
<text text-anchor="middle" x="104" y="-155.3" font-family="Times,serif" font-size="14.00" fill="#000000">4</text>
</g>
<!-- 5&#45;&gt;4 -->
<g id="edge1" class="edge">
<title>5&#45;&gt;4</title>
<path fill="none" stroke="#000000" d="M30.6064,-83.4186C37.4896,-90.717 46.1803,-99.8861 54,-108 63.8144,-118.1837 74.8091,-129.4171 83.984,-138.7431"/>
<polygon fill="#000000" stroke="#000000" points="81.6852,-141.3969 91.197,-146.0635 86.6714,-136.4838 81.6852,-141.3969"/>
<text text-anchor="middle" x="61" y="-125.8" font-family="Times,serif" font-size="14.00" fill="#000000">0</text>
</g>
<!-- 1 -->
<g id="node3" class="node">
<title>1</title>
<ellipse fill="none" stroke="#000000" cx="348" cy="-120" rx="18" ry="18"/>
<text text-anchor="middle" x="348" y="-116.3" font-family="Times,serif" font-size="14.00" fill="#000000">1</text>
</g>
<!-- 5&#45;&gt;1 -->
<g id="edge2" class="edge">
<title>5&#45;&gt;1</title>
<path fill="none" stroke="#000000" d="M35.2129,-63.8837C52.4009,-58.3294 79.688,-51 104,-51 104,-51 104,-51 269,-51 296.9184,-51 319.7311,-75.7471 333.5404,-95.6004"/>
<polygon fill="#000000" stroke="#000000" points="330.6453,-97.5679 339.0669,-103.9966 336.4924,-93.7193 330.6453,-97.5679"/>
<text text-anchor="middle" x="190" y="-54.8" font-family="Times,serif" font-size="14.00" fill="#000000">0</text>
</g>
<!-- 4&#45;&gt;5 -->
<g id="edge3" class="edge">
<title>4&#45;&gt;5</title>
<path fill="none" stroke="#000000" d="M98.985,-141.5022C93.658,-125.8008 83.7917,-103.1171 68,-89 61.6718,-83.3429 53.4883,-79.3033 45.581,-76.4474"/>
<polygon fill="#000000" stroke="#000000" points="46.4616,-73.056 35.8734,-73.4302 44.384,-79.7406 46.4616,-73.056"/>
<text text-anchor="middle" x="61" y="-92.8" font-family="Times,serif" font-size="14.00" fill="#000000">14</text>
</g>
<!-- 4&#45;&gt;1 -->
<g id="edge4" class="edge">
<title>4&#45;&gt;1</title>
<path fill="none" stroke="#000000" d="M121.9419,-156.1322C164.0685,-149.3989 269.5537,-132.5385 320.1181,-124.4565"/>
<polygon fill="#000000" stroke="#000000" points="320.7096,-127.9065 330.0318,-122.872 319.6047,-120.9942 320.7096,-127.9065"/>
<text text-anchor="middle" x="229.5" y="-142.8" font-family="Times,serif" font-size="14.00" fill="#000000">0</text>
</g>
<!-- 3 -->
<g id="node4" class="node">
<title>3</title>
<ellipse fill="none" stroke="#000000" cx="434" cy="-266" rx="18" ry="18"/>
<text text-anchor="middle" x="434" y="-262.3" font-family="Times,serif" font-size="14.00" fill="#000000">3</text>
</g>
<!-- 4&#45;&gt;3 -->
<g id="edge5" class="edge">
<title>4&#45;&gt;3</title>
<path fill="none" stroke="#000000" d="M105.1198,-177.2287C108.3094,-224.678 118.6239,-350.7803 140,-386 154.3436,-409.6328 162.355,-423 190,-423 190,-423 190,-423 348,-423 406.1189,-423 425.2183,-339.2202 431.2917,-294.0628"/>
<polygon fill="#000000" stroke="#000000" points="434.7813,-294.3594 432.5146,-284.0099 427.8325,-293.514 434.7813,-294.3594"/>
<text text-anchor="middle" x="269" y="-426.8" font-family="Times,serif" font-size="14.00" fill="#000000">0</text>
</g>
<!-- 2 -->
<g id="node5" class="node">
<title>2</title>
<ellipse fill="none" stroke="#000000" cx="190" cy="-221" rx="18" ry="18"/>
<text text-anchor="middle" x="190" y="-217.3" font-family="Times,serif" font-size="14.00" fill="#000000">2</text>
</g>
<!-- 4&#45;&gt;2 -->
<g id="edge6" class="edge">
<title>4&#45;&gt;2</title>
<path fill="none" stroke="#000000" d="M121.8406,-161.5566C131.9541,-163.6588 144.4541,-167.4088 154,-174 162.4474,-179.8328 169.783,-188.2681 175.5885,-196.3875"/>
<polygon fill="#000000" stroke="#000000" points="172.8187,-198.5433 181.2677,-204.9358 178.6492,-194.6696 172.8187,-198.5433"/>
<text text-anchor="middle" x="147" y="-177.8" font-family="Times,serif" font-size="14.00" fill="#000000">0</text>
</g>
<!-- 1&#45;&gt;5 -->
<g id="edge7" class="edge">
<title>1&#45;&gt;5</title>
<path fill="none" stroke="#000000" d="M344.8032,-102.0348C337.701,-68.5588 317.2641,0 269,0 104,0 104,0 104,0 74.0161,0 48.6838,-25.9104 33.4414,-46.2035"/>
<polygon fill="#000000" stroke="#000000" points="30.5053,-44.2925 27.5426,-54.4647 36.2021,-48.3603 30.5053,-44.2925"/>
<text text-anchor="middle" x="190" y="-3.8" font-family="Times,serif" font-size="14.00" fill="#000000">21</text>
</g>
<!-- 1&#45;&gt;4 -->
<g id="edge8" class="edge">
<title>1&#45;&gt;4</title>
<path fill="none" stroke="#000000" d="M330.0828,-118.0182C306.1774,-115.7909 262.6091,-113.1905 226,-119 186.2997,-125.3001 178.1785,-134.422 140,-147 137.0298,-147.9786 133.9233,-149.0068 130.8332,-150.0327"/>
<polygon fill="#000000" stroke="#000000" points="129.5873,-146.7585 121.2047,-153.2379 131.7983,-153.4002 129.5873,-146.7585"/>
<text text-anchor="middle" x="229.5" y="-122.8" font-family="Times,serif" font-size="14.00" fill="#000000">1</text>
</g>
<!-- 1&#45;&gt;3 -->
<g id="edge9" class="edge">
<title>1&#45;&gt;3</title>
<path fill="none" stroke="#000000" d="M366.2002,-117.4878C376.6897,-117.0817 389.4497,-118.5119 398,-126 414.625,-140.5597 425.4135,-201.3452 430.5278,-237.8638"/>
<polygon fill="#000000" stroke="#000000" points="427.0759,-238.4563 431.8767,-247.9011 434.0136,-237.524 427.0759,-238.4563"/>
<text text-anchor="middle" x="391" y="-129.8" font-family="Times,serif" font-size="14.00" fill="#000000">0</text>
</g>
<!-- 0 -->
<g id="node6" class="node">
<title>0</title>
<ellipse fill="none" stroke="#000000" cx="269" cy="-205" rx="18" ry="18"/>
<text text-anchor="middle" x="269" y="-201.3" font-family="Times,serif" font-size="14.00" fill="#000000">0</text>
</g>
<!-- 1&#45;&gt;0 -->
<g id="edge10" class="edge">
<title>1&#45;&gt;0</title>
<path fill="none" stroke="#000000" d="M332.7294,-129.9574C324.0559,-136.0266 313.3059,-144.2766 305,-153 297.1635,-161.2304 289.7791,-171.3055 283.7622,-180.3883"/>
<polygon fill="#000000" stroke="#000000" points="280.6718,-178.7245 278.235,-189.0353 286.5699,-182.4946 280.6718,-178.7245"/>
<text text-anchor="middle" x="308.5" y="-156.8" font-family="Times,serif" font-size="14.00" fill="#000000">0</text>
</g>
<!-- 3&#45;&gt;4 -->
<g id="edge13" class="edge">
<title>3&#45;&gt;4</title>
<path fill="none" stroke="#000000" d="M428.7771,-283.5037C418.5888,-313.6107 393.0257,-372 348,-372 190,-372 190,-372 190,-372 150.4861,-372 120.6145,-244.3685 109.1344,-186.7009"/>
<polygon fill="#000000" stroke="#000000" points="112.5523,-185.9413 107.2066,-176.7939 105.6812,-187.2783 112.5523,-185.9413"/>
<text text-anchor="middle" x="269" y="-375.8" font-family="Times,serif" font-size="14.00" fill="#000000">5</text>
</g>
<!-- 3&#45;&gt;1 -->
<g id="edge11" class="edge">
<title>3&#45;&gt;1</title>
<path fill="none" stroke="#000000" d="M430.4188,-247.9902C425.589,-226.7821 415.508,-191.138 398,-165 390.7614,-154.1934 380.3574,-144.2724 370.9124,-136.5118"/>
<polygon fill="#000000" stroke="#000000" points="372.9923,-133.695 362.9628,-130.2801 368.6737,-139.2041 372.9923,-133.695"/>
<text text-anchor="middle" x="391" y="-168.8" font-family="Times,serif" font-size="14.00" fill="#000000">11</text>
</g>
<!-- 3&#45;&gt;2 -->
<g id="edge12" class="edge">
<title>3&#45;&gt;2</title>
<path fill="none" stroke="#000000" d="M415.9362,-265.5056C406.4269,-265.1877 394.5756,-264.7006 384,-264 359.9501,-262.4067 353.7422,-263.153 330,-259 282.9597,-250.7717 271.9566,-244.9803 226,-232 223.0146,-231.1568 219.8986,-230.2481 216.803,-229.3271"/>
<polygon fill="#000000" stroke="#000000" points="217.7542,-225.9583 207.1689,-226.4088 215.7248,-232.6577 217.7542,-225.9583"/>
<text text-anchor="middle" x="308.5" y="-258.8" font-family="Times,serif" font-size="14.00" fill="#000000">2</text>
</g>
<!-- 3&#45;&gt;0 -->
<g id="edge14" class="edge">
<title>3&#45;&gt;0</title>
<path fill="none" stroke="#000000" d="M422.8567,-251.5493C410.7121,-237.1566 389.8044,-216.0755 366,-208 343.7873,-200.4645 317.0471,-200.2378 297.2729,-201.599"/>
<polygon fill="#000000" stroke="#000000" points="296.7375,-198.1322 287.0769,-202.4822 297.3417,-205.106 296.7375,-198.1322"/>
<text text-anchor="middle" x="348" y="-211.8" font-family="Times,serif" font-size="14.00" fill="#000000">0</text>
</g>
<!-- 2&#45;&gt;4 -->
<g id="edge19" class="edge">
<title>2&#45;&gt;4</title>
<path fill="none" stroke="#000000" d="M174.3483,-211.6831C164.3196,-205.5439 151.1425,-197.1588 140,-189 135.241,-185.5154 130.2902,-181.5983 125.6379,-177.7733"/>
<polygon fill="#000000" stroke="#000000" points="127.6009,-174.8513 117.6921,-171.1008 123.0993,-180.2119 127.6009,-174.8513"/>
<text text-anchor="middle" x="147" y="-201.8" font-family="Times,serif" font-size="14.00" fill="#000000">12</text>
</g>
<!-- 2&#45;&gt;3 -->
<g id="edge18" class="edge">
<title>2&#45;&gt;3</title>
<path fill="none" stroke="#000000" d="M204.7137,-232.0098C211.1026,-236.5804 218.7666,-241.7885 226,-246 236.651,-252.2014 239.4994,-253.5686 251,-258 274.3574,-267.0001 280.3266,-269.7819 305,-274 339.6533,-279.9243 348.8552,-277.1108 384,-278 390.2202,-278.1574 391.8581,-278.9967 398,-278 401.0869,-277.4991 404.2668,-276.7713 407.399,-275.9181"/>
<polygon fill="#000000" stroke="#000000" points="408.5738,-279.2179 417.0705,-272.8889 406.4815,-272.5379 408.5738,-279.2179"/>
<text text-anchor="middle" x="308.5" y="-278.8" font-family="Times,serif" font-size="14.00" fill="#000000">0</text>
</g>
<!-- 2&#45;&gt;0 -->
<g id="edge20" class="edge">
<title>2&#45;&gt;0</title>
<path fill="none" stroke="#000000" d="M202.7292,-207.7114C209.1063,-202.0093 217.3124,-195.9808 226,-193 231.7296,-191.0341 237.9687,-191.3871 243.872,-192.8262"/>
<polygon fill="#000000" stroke="#000000" points="242.7464,-196.1402 253.3409,-196.0561 245.0063,-189.515 242.7464,-196.1402"/>
<text text-anchor="middle" x="229.5" y="-196.8" font-family="Times,serif" font-size="14.00" fill="#000000">0</text>
</g>
<!-- 0&#45;&gt;1 -->
<g id="edge15" class="edge">
<title>0&#45;&gt;1</title>
<path fill="none" stroke="#000000" d="M283.641,-193.7297C292.3034,-186.7466 303.2553,-177.3514 312,-168 319.0013,-160.5129 325.9395,-151.6892 331.8285,-143.6629"/>
<polygon fill="#000000" stroke="#000000" points="334.7908,-145.5375 337.7604,-135.3673 329.0967,-141.4659 334.7908,-145.5375"/>
<text text-anchor="middle" x="308.5" y="-177.8" font-family="Times,serif" font-size="14.00" fill="#000000">7</text>
</g>
<!-- 0&#45;&gt;3 -->
<g id="edge16" class="edge">
<title>0&#45;&gt;3</title>
<path fill="none" stroke="#000000" d="M286.0364,-211.2983C314.6902,-221.8915 372.7482,-243.3554 407.0018,-256.0188"/>
<polygon fill="#000000" stroke="#000000" points="406.2158,-259.4597 416.8091,-259.6446 408.6432,-252.8941 406.2158,-259.4597"/>
<text text-anchor="middle" x="348" y="-243.8" font-family="Times,serif" font-size="14.00" fill="#000000">10</text>
</g>
<!-- 0&#45;&gt;2 -->
<g id="edge17" class="edge">
<title>0&#45;&gt;2</title>
<path fill="none" stroke="#000000" d="M251.1446,-208.6163C241.3594,-210.5981 229.0103,-213.0992 217.976,-215.334"/>
<polygon fill="#000000" stroke="#000000" points="217.0325,-211.9539 207.9263,-217.3694 218.4221,-218.8146 217.0325,-211.9539"/>
<text text-anchor="middle" x="229.5" y="-216.8" font-family="Times,serif" font-size="14.00" fill="#000000">8</text>
</g>
</g>
</svg>
