<?xml version="1.0" encoding="UTF-8" standalone="no"?>
<!DOCTYPE svg PUBLIC "-//W3C//DTD SVG 1.1//EN"
 "http://www.w3.org/Graphics/SVG/1.1/DTD/svg11.dtd">
<!-- Generated by graphviz version 2.38.0 (20140413.2041)
 -->
<!-- Title: finite_state_machine Pages: 1 -->
<svg width="388pt" height="154pt"
 viewBox="0.00 0.00 388.00 154.00" xmlns="http://www.w3.org/2000/svg" xmlns:xlink="http://www.w3.org/1999/xlink">
<g id="graph0" class="graph" transform="scale(1 1) rotate(0) translate(4 150)">
<title>finite_state_machine</title>
<polygon fill="white" stroke="none" points="-4,4 -4,-150 384,-150 384,4 -4,4"/>
<!-- 0 -->
<g id="node1" class="node"><title>0</title>
<ellipse fill="none" stroke="black" cx="18" cy="-77" rx="18" ry="18"/>
<text text-anchor="middle" x="18" y="-73.3" font-family="Times,serif" font-size="14.00">0</text>
</g>
<!-- 2 -->
<g id="node2" class="node"><title>2</title>
<ellipse fill="none" stroke="black" cx="190" cy="-128" rx="18" ry="18"/>
<text text-anchor="middle" x="190" y="-124.3" font-family="Times,serif" font-size="14.00">2</text>
</g>
<!-- 0&#45;&gt;2 -->
<g id="edge1" class="edge"><title>0&#45;&gt;2</title>
<path fill="none" stroke="black" d="M34.0326,-85.9436C40.1092,-89.3502 47.2671,-93.1052 54,-96 90.9285,-111.877 100.589,-116.089 140,-124 146.81,-125.367 154.241,-126.269 161.211,-126.864"/>
<polygon fill="black" stroke="black" points="161.415,-130.385 171.628,-127.568 161.887,-123.401 161.415,-130.385"/>
<text text-anchor="middle" x="104" y="-123.8" font-family="Times,serif" font-size="14.00">8</text>
</g>
<!-- 3 -->
<g id="node3" class="node"><title>3</title>
<ellipse fill="none" stroke="black" cx="104" cy="-77" rx="18" ry="18"/>
<text text-anchor="middle" x="104" y="-73.3" font-family="Times,serif" font-size="14.00">3</text>
</g>
<!-- 0&#45;&gt;3 -->
<g id="edge2" class="edge"><title>0&#45;&gt;3</title>
<path fill="none" stroke="black" d="M36.4049,-77C47.7428,-77 62.7729,-77 75.6847,-77"/>
<polygon fill="black" stroke="black" points="75.9049,-80.5001 85.9048,-77 75.9048,-73.5001 75.9049,-80.5001"/>
<text text-anchor="middle" x="61" y="-80.8" font-family="Times,serif" font-size="14.00">10</text>
</g>
<!-- 1 -->
<g id="node4" class="node"><title>1</title>
<ellipse fill="none" stroke="black" cx="190" cy="-18" rx="18" ry="18"/>
<text text-anchor="middle" x="190" y="-14.3" font-family="Times,serif" font-size="14.00">1</text>
</g>
<!-- 0&#45;&gt;1 -->
<g id="edge3" class="edge"><title>0&#45;&gt;1</title>
<path fill="none" stroke="black" d="M32.514,-66.2504C45.4717,-56.5178 65.9698,-42.5796 86,-35 110.539,-25.7142 140.262,-21.4942 161.459,-19.5801"/>
<polygon fill="black" stroke="black" points="162,-23.0485 171.694,-18.7747 161.45,-16.0701 162,-23.0485"/>
<text text-anchor="middle" x="104" y="-38.8" font-family="Times,serif" font-size="14.00">7</text>
</g>
<!-- 4 -->
<g id="node5" class="node"><title>4</title>
<ellipse fill="none" stroke="black" cx="276" cy="-71" rx="18" ry="18"/>
<text text-anchor="middle" x="276" y="-67.3" font-family="Times,serif" font-size="14.00">4</text>
</g>
<!-- 2&#45;&gt;4 -->
<g id="edge4" class="edge"><title>2&#45;&gt;4</title>
<path fill="none" stroke="black" d="M205.249,-118.331C218.041,-109.651 237.049,-96.7525 251.993,-86.6119"/>
<polygon fill="black" stroke="black" points="254.371,-89.2279 260.681,-80.7167 250.441,-83.4356 254.371,-89.2279"/>
<text text-anchor="middle" x="233" y="-105.8" font-family="Times,serif" font-size="14.00">12</text>
</g>
<!-- 3&#45;&gt;2 -->
<g id="edge6" class="edge"><title>3&#45;&gt;2</title>
<path fill="none" stroke="black" d="M120.018,-86.1178C132.56,-93.7327 150.669,-104.728 165.186,-113.542"/>
<polygon fill="black" stroke="black" points="163.748,-116.763 174.112,-118.961 167.381,-110.78 163.748,-116.763"/>
<text text-anchor="middle" x="147" y="-108.8" font-family="Times,serif" font-size="14.00">2</text>
</g>
<!-- 3&#45;&gt;1 -->
<g id="edge7" class="edge"><title>3&#45;&gt;1</title>
<path fill="none" stroke="black" d="M117.943,-65.5251C124.397,-59.9998 132.425,-53.4153 140,-48 148.018,-42.268 157.147,-36.4913 165.334,-31.5585"/>
<polygon fill="black" stroke="black" points="167.241,-34.497 174.068,-26.3952 163.679,-28.4712 167.241,-34.497"/>
<text text-anchor="middle" x="147" y="-51.8" font-family="Times,serif" font-size="14.00">11</text>
</g>
<!-- 3&#45;&gt;4 -->
<g id="edge5" class="edge"><title>3&#45;&gt;4</title>
<path fill="none" stroke="black" d="M122.236,-76.3917C151.841,-75.3468 212.567,-73.2035 247.888,-71.9569"/>
<polygon fill="black" stroke="black" points="248.101,-75.4517 257.971,-71.601 247.854,-68.456 248.101,-75.4517"/>
<text text-anchor="middle" x="190" y="-77.8" font-family="Times,serif" font-size="14.00">5</text>
</g>
<!-- 1&#45;&gt;4 -->
<g id="edge8" class="edge"><title>1&#45;&gt;4</title>
<path fill="none" stroke="black" d="M206.089,-27.0673C215.818,-32.9554 228.714,-40.8393 240,-48 243.904,-50.4772 248.029,-53.1429 252.023,-55.7507"/>
<polygon fill="black" stroke="black" points="250.144,-58.7039 260.423,-61.2712 253.988,-52.8541 250.144,-58.7039"/>
<text text-anchor="middle" x="233" y="-51.8" font-family="Times,serif" font-size="14.00">1</text>
</g>
<!-- 5 -->
<g id="node6" class="node"><title>5</title>
<ellipse fill="none" stroke="black" cx="362" cy="-36" rx="18" ry="18"/>
<text text-anchor="middle" x="362" y="-32.3" font-family="Times,serif" font-size="14.00">5</text>
</g>
<!-- 1&#45;&gt;5 -->
<g id="edge9" class="edge"><title>1&#45;&gt;5</title>
<path fill="none" stroke="black" d="M207.922,-19.7917C237.376,-22.9104 298.306,-29.3618 333.769,-33.1167"/>
<polygon fill="black" stroke="black" points="333.581,-36.6163 343.894,-34.1888 334.319,-29.6552 333.581,-36.6163"/>
<text text-anchor="middle" x="276" y="-32.8" font-family="Times,serif" font-size="14.00">21</text>
</g>
<!-- 4&#45;&gt;5 -->
<g id="edge10" class="edge"><title>4&#45;&gt;5</title>
<path fill="none" stroke="black" d="M292.8,-64.4168C304.808,-59.4133 321.574,-52.4276 335.477,-46.6347"/>
<polygon fill="black" stroke="black" points="337.101,-49.7497 344.985,-42.6727 334.409,-43.2882 337.101,-49.7497"/>
<text text-anchor="middle" x="319" y="-58.8" font-family="Times,serif" font-size="14.00">14</text>
</g>
</g>
</svg>
