<?xml version="1.0" encoding="UTF-8" standalone="no"?>
<!DOCTYPE svg PUBLIC "-//W3C//DTD SVG 1.1//EN"
 "http://www.w3.org/Graphics/SVG/1.1/DTD/svg11.dtd">
<!-- Generated by graphviz version 2.38.0 (20140413.2041)
 -->
<!-- Title: finite_state_machine Pages: 1 -->
<svg width="202pt" height="98pt"
 viewBox="0.00 0.00 202.00 98.00" xmlns="http://www.w3.org/2000/svg" xmlns:xlink="http://www.w3.org/1999/xlink">
<g id="graph0" class="graph" transform="scale(1 1) rotate(0) translate(4 94)">
<title>finite_state_machine</title>
<polygon fill="white" stroke="none" points="-4,4 -4,-94 198,-94 198,4 -4,4"/>
<!-- 2 -->
<g id="node1" class="node"><title>2</title>
<ellipse fill="none" stroke="black" cx="97" cy="-72" rx="18" ry="18"/>
<text text-anchor="middle" x="97" y="-68.3" font-family="Times,serif" font-size="14.00">2</text>
</g>
<!-- 3 -->
<g id="node2" class="node"><title>3</title>
<ellipse fill="none" stroke="black" cx="176" cy="-72" rx="18" ry="18"/>
<text text-anchor="middle" x="176" y="-68.3" font-family="Times,serif" font-size="14.00">3</text>
</g>
<!-- 2&#45;&gt;3 -->
<g id="edge1" class="edge"><title>2&#45;&gt;3</title>
<path fill="none" stroke="black" d="M115.089,-72C124.659,-72 136.817,-72 147.677,-72"/>
<polygon fill="black" stroke="black" points="147.959,-75.5001 157.959,-72 147.959,-68.5001 147.959,-75.5001"/>
<text text-anchor="middle" x="136.5" y="-75.8" font-family="Times,serif" font-size="14.00">1</text>
</g>
<!-- 0 -->
<g id="node3" class="node"><title>0</title>
<ellipse fill="none" stroke="black" cx="18" cy="-41" rx="18" ry="18"/>
<text text-anchor="middle" x="18" y="-37.3" font-family="Times,serif" font-size="14.00">0</text>
</g>
<!-- 0&#45;&gt;2 -->
<g id="edge2" class="edge"><title>0&#45;&gt;2</title>
<path fill="none" stroke="black" d="M34.9544,-47.4232C45.2787,-51.5798 58.9428,-57.0809 70.7256,-61.8246"/>
<polygon fill="black" stroke="black" points="69.4824,-65.097 80.066,-65.585 72.0967,-58.6035 69.4824,-65.097"/>
<text text-anchor="middle" x="57.5" y="-61.8" font-family="Times,serif" font-size="14.00">1</text>
</g>
<!-- 1 -->
<g id="node4" class="node"><title>1</title>
<ellipse fill="none" stroke="black" cx="97" cy="-18" rx="18" ry="18"/>
<text text-anchor="middle" x="97" y="-14.3" font-family="Times,serif" font-size="14.00">1</text>
</g>
<!-- 0&#45;&gt;1 -->
<g id="edge3" class="edge"><title>0&#45;&gt;1</title>
<path fill="none" stroke="black" d="M34.8265,-34.0091C40.7612,-31.5637 47.6146,-28.9459 54,-27 58.8284,-25.5286 64.0397,-24.2061 69.0938,-23.0566"/>
<polygon fill="black" stroke="black" points="70.0141,-26.4396 79.0745,-20.9479 68.567,-19.5907 70.0141,-26.4396"/>
<text text-anchor="middle" x="57.5" y="-30.8" font-family="Times,serif" font-size="14.00">1</text>
</g>
</g>
</svg>
