<?xml version="1.0" encoding="UTF-8" standalone="no"?>
<!DOCTYPE svg PUBLIC "-//W3C//DTD SVG 1.1//EN"
 "http://www.w3.org/Graphics/SVG/1.1/DTD/svg11.dtd">
<!-- Generated by graphviz version 2.38.0 (20140413.2041)
 -->
<!-- Title: finite_state_machine Pages: 1 -->
<svg width="576pt" height="289pt"
 viewBox="0.00 0.00 576.00 288.91" xmlns="http://www.w3.org/2000/svg" xmlns:xlink="http://www.w3.org/1999/xlink">
<g id="graph0" class="graph" transform="scale(0.911392 0.911392) rotate(0) translate(4 313)">
<title>finite_state_machine</title>
<polygon fill="white" stroke="none" points="-4,4 -4,-313 628,-313 628,4 -4,4"/>
<!-- 8 -->
<g id="node1" class="node"><title>8</title>
<ellipse fill="none" stroke="black" cx="527" cy="-263" rx="18" ry="18"/>
<text text-anchor="middle" x="527" y="-259.3" font-family="Times,serif" font-size="14.00">8</text>
</g>
<!-- 7 -->
<g id="node2" class="node"><title>7</title>
<ellipse fill="none" stroke="black" cx="606" cy="-217" rx="18" ry="18"/>
<text text-anchor="middle" x="606" y="-213.3" font-family="Times,serif" font-size="14.00">7</text>
</g>
<!-- 8&#45;&gt;7 -->
<g id="edge1" class="edge"><title>8&#45;&gt;7</title>
<path fill="none" stroke="black" d="M542.846,-254.131C553.818,-247.576 568.975,-238.522 581.574,-230.995"/>
<polygon fill="black" stroke="black" points="583.409,-233.975 590.199,-225.842 579.819,-227.966 583.409,-233.975"/>
<text text-anchor="middle" x="566.5" y="-244.8" font-family="Times,serif" font-size="14.00">2</text>
</g>
<!-- 5 -->
<g id="node3" class="node"><title>5</title>
<ellipse fill="none" stroke="black" cx="448" cy="-263" rx="18" ry="18"/>
<text text-anchor="middle" x="448" y="-259.3" font-family="Times,serif" font-size="14.00">5</text>
</g>
<!-- 5&#45;&gt;8 -->
<g id="edge2" class="edge"><title>5&#45;&gt;8</title>
<path fill="none" stroke="black" d="M466.089,-263C475.659,-263 487.817,-263 498.677,-263"/>
<polygon fill="black" stroke="black" points="498.959,-266.5 508.959,-263 498.959,-259.5 498.959,-266.5"/>
<text text-anchor="middle" x="487.5" y="-266.8" font-family="Times,serif" font-size="14.00">5</text>
</g>
<!-- 5&#45;&gt;7 -->
<g id="edge3" class="edge"><title>5&#45;&gt;7</title>
<path fill="none" stroke="black" d="M463.181,-273.049C482.378,-285.316 517.405,-302.925 545,-290 565.933,-280.195 582,-259.068 592.216,-242.053"/>
<polygon fill="black" stroke="black" points="595.393,-243.546 597.283,-233.121 589.304,-240.092 595.393,-243.546"/>
<text text-anchor="middle" x="527" y="-297.8" font-family="Times,serif" font-size="14.00">7</text>
</g>
<!-- 4 -->
<g id="node4" class="node"><title>4</title>
<ellipse fill="none" stroke="black" cx="190" cy="-185" rx="18" ry="18"/>
<text text-anchor="middle" x="190" y="-181.3" font-family="Times,serif" font-size="14.00">4</text>
</g>
<!-- 4&#45;&gt;7 -->
<g id="edge5" class="edge"><title>4&#45;&gt;7</title>
<path fill="none" stroke="black" d="M208.087,-186.496C213.784,-186.986 220.164,-187.527 226,-188 357.855,-198.695 515.606,-210.423 577.845,-215.008"/>
<polygon fill="black" stroke="black" points="577.767,-218.511 587.997,-215.755 578.281,-211.53 577.767,-218.511"/>
<text text-anchor="middle" x="405" y="-205.8" font-family="Times,serif" font-size="14.00">7</text>
</g>
<!-- 4&#45;&gt;5 -->
<g id="edge6" class="edge"><title>4&#45;&gt;5</title>
<path fill="none" stroke="black" d="M198.408,-201.079C204.295,-211.941 213.6,-225.603 226,-233 287.617,-269.755 375.819,-269.019 419.839,-265.81"/>
<polygon fill="black" stroke="black" points="420.361,-269.279 430.036,-264.962 419.78,-262.303 420.361,-269.279"/>
<text text-anchor="middle" x="319" y="-266.8" font-family="Times,serif" font-size="14.00">1</text>
</g>
<!-- 2 -->
<g id="node5" class="node"><title>2</title>
<ellipse fill="none" stroke="black" cx="276" cy="-122" rx="18" ry="18"/>
<text text-anchor="middle" x="276" y="-118.3" font-family="Times,serif" font-size="14.00">2</text>
</g>
<!-- 4&#45;&gt;2 -->
<g id="edge4" class="edge"><title>4&#45;&gt;2</title>
<path fill="none" stroke="black" d="M204.081,-173.712C210.567,-168.231 218.583,-161.63 226,-156 234.358,-149.656 243.778,-143.006 252.109,-137.287"/>
<polygon fill="black" stroke="black" points="254.315,-140.02 260.62,-131.505 250.381,-134.23 254.315,-140.02"/>
<text text-anchor="middle" x="233" y="-159.8" font-family="Times,serif" font-size="14.00">2</text>
</g>
<!-- 3 -->
<g id="node9" class="node"><title>3</title>
<ellipse fill="none" stroke="black" cx="362" cy="-141" rx="18" ry="18"/>
<text text-anchor="middle" x="362" y="-137.3" font-family="Times,serif" font-size="14.00">3</text>
</g>
<!-- 2&#45;&gt;3 -->
<g id="edge18" class="edge"><title>2&#45;&gt;3</title>
<path fill="none" stroke="black" d="M293.999,-125.845C305.574,-128.463 321.132,-131.982 334.343,-134.97"/>
<polygon fill="black" stroke="black" points="333.788,-138.433 344.313,-137.226 335.332,-131.606 333.788,-138.433"/>
<text text-anchor="middle" x="319" y="-135.8" font-family="Times,serif" font-size="14.00">26</text>
</g>
<!-- 0 -->
<g id="node6" class="node"><title>0</title>
<ellipse fill="none" stroke="black" cx="18" cy="-38" rx="18" ry="18"/>
<text text-anchor="middle" x="18" y="-34.3" font-family="Times,serif" font-size="14.00">0</text>
</g>
<!-- 0&#45;&gt;2 -->
<g id="edge9" class="edge"><title>0&#45;&gt;2</title>
<path fill="none" stroke="black" d="M36.1132,-37.6178C75.0867,-37.4985 172.309,-41.5045 240,-81 247.503,-85.3775 254.165,-91.97 259.611,-98.596"/>
<polygon fill="black" stroke="black" points="257.015,-100.966 265.83,-106.843 262.604,-96.7511 257.015,-100.966"/>
<text text-anchor="middle" x="147" y="-51.8" font-family="Times,serif" font-size="14.00">1</text>
</g>
<!-- 6 -->
<g id="node7" class="node"><title>6</title>
<ellipse fill="none" stroke="black" cx="448" cy="-102" rx="18" ry="18"/>
<text text-anchor="middle" x="448" y="-98.3" font-family="Times,serif" font-size="14.00">6</text>
</g>
<!-- 0&#45;&gt;6 -->
<g id="edge7" class="edge"><title>0&#45;&gt;6</title>
<path fill="none" stroke="black" d="M32.7064,-27.4149C48.6677,-16.171 76.2697,-0 103,-0 103,-0 103,-0 363,-0 401.954,-0 426.189,-44.8766 438.092,-75.0965"/>
<polygon fill="black" stroke="black" points="434.896,-76.5426 441.66,-84.6971 441.457,-74.1042 434.896,-76.5426"/>
<text text-anchor="middle" x="233" y="-3.8" font-family="Times,serif" font-size="14.00">2</text>
</g>
<!-- 1 -->
<g id="node8" class="node"><title>1</title>
<ellipse fill="none" stroke="black" cx="104" cy="-103" rx="18" ry="18"/>
<text text-anchor="middle" x="104" y="-99.3" font-family="Times,serif" font-size="14.00">1</text>
</g>
<!-- 0&#45;&gt;1 -->
<g id="edge8" class="edge"><title>0&#45;&gt;1</title>
<path fill="none" stroke="black" d="M32.8709,-48.7334C46.0815,-58.9559 66.1637,-74.4957 81.4574,-86.3301"/>
<polygon fill="black" stroke="black" points="79.3365,-89.1145 89.3872,-92.4663 83.6204,-83.5784 79.3365,-89.1145"/>
<text text-anchor="middle" x="61" y="-77.8" font-family="Times,serif" font-size="14.00">38</text>
</g>
<!-- 6&#45;&gt;7 -->
<g id="edge14" class="edge"><title>6&#45;&gt;7</title>
<path fill="none" stroke="black" d="M466.112,-101.004C492.751,-100.483 543.796,-103.803 570,-134 583.88,-149.995 592.869,-172.294 598.258,-189.751"/>
<polygon fill="black" stroke="black" points="594.901,-190.74 601.025,-199.386 601.629,-188.808 594.901,-190.74"/>
<text text-anchor="middle" x="527" y="-117.8" font-family="Times,serif" font-size="14.00">27</text>
</g>
<!-- 1&#45;&gt;4 -->
<g id="edge17" class="edge"><title>1&#45;&gt;4</title>
<path fill="none" stroke="black" d="M117.394,-115.099C131.043,-128.423 153.177,-150.03 169.228,-165.699"/>
<polygon fill="black" stroke="black" points="166.954,-168.37 176.555,-172.851 171.844,-163.361 166.954,-168.37"/>
<text text-anchor="middle" x="147" y="-151.8" font-family="Times,serif" font-size="14.00">13</text>
</g>
<!-- 1&#45;&gt;2 -->
<g id="edge15" class="edge"><title>1&#45;&gt;2</title>
<path fill="none" stroke="black" d="M121.922,-104.891C151.376,-108.183 212.306,-114.993 247.769,-118.957"/>
<polygon fill="black" stroke="black" points="247.567,-122.456 257.894,-120.088 248.345,-115.499 247.567,-122.456"/>
<text text-anchor="middle" x="190" y="-117.8" font-family="Times,serif" font-size="14.00">8</text>
</g>
<!-- 1&#45;&gt;3 -->
<g id="edge16" class="edge"><title>1&#45;&gt;3</title>
<path fill="none" stroke="black" d="M121.661,-98.6215C155.19,-90.5984 232.834,-76.0238 294,-95 311.3,-100.367 328.097,-111.919 340.546,-122.103"/>
<polygon fill="black" stroke="black" points="338.549,-125 348.422,-128.842 343.1,-119.681 338.549,-125"/>
<text text-anchor="middle" x="233" y="-89.8" font-family="Times,serif" font-size="14.00">10</text>
</g>
<!-- 3&#45;&gt;7 -->
<g id="edge11" class="edge"><title>3&#45;&gt;7</title>
<path fill="none" stroke="black" d="M379.529,-145.409C414.825,-154.941 500.045,-178.588 570,-203 573.151,-204.1 576.436,-205.317 579.676,-206.561"/>
<polygon fill="black" stroke="black" points="578.497,-209.859 589.084,-210.284 581.073,-203.35 578.497,-209.859"/>
<text text-anchor="middle" x="487.5" y="-179.8" font-family="Times,serif" font-size="14.00">1</text>
</g>
<!-- 3&#45;&gt;5 -->
<g id="edge13" class="edge"><title>3&#45;&gt;5</title>
<path fill="none" stroke="black" d="M377.446,-150.325C388.139,-157.825 402.449,-169.198 412,-182 424.137,-198.269 433.087,-219.396 438.897,-235.994"/>
<polygon fill="black" stroke="black" points="435.634,-237.273 442.109,-245.659 442.276,-235.066 435.634,-237.273"/>
<text text-anchor="middle" x="405" y="-185.8" font-family="Times,serif" font-size="14.00">8</text>
</g>
<!-- 3&#45;&gt;4 -->
<g id="edge12" class="edge"><title>3&#45;&gt;4</title>
<path fill="none" stroke="black" d="M344.648,-145.788C338.779,-147.475 332.103,-149.36 326,-151 288.497,-161.077 244.891,-171.898 217.616,-178.56"/>
<polygon fill="black" stroke="black" points="216.559,-175.215 207.67,-180.981 218.215,-182.016 216.559,-175.215"/>
<text text-anchor="middle" x="276" y="-171.8" font-family="Times,serif" font-size="14.00">20</text>
</g>
<!-- 3&#45;&gt;6 -->
<g id="edge10" class="edge"><title>3&#45;&gt;6</title>
<path fill="none" stroke="black" d="M377.222,-131.029C383.42,-126.959 390.883,-122.417 398,-119 405.143,-115.571 413.166,-112.49 420.619,-109.924"/>
<polygon fill="black" stroke="black" points="421.877,-113.195 430.293,-106.759 419.7,-106.542 421.877,-113.195"/>
<text text-anchor="middle" x="405" y="-122.8" font-family="Times,serif" font-size="14.00">24</text>
</g>
</g>
</svg>
