<?xml version="1.0" encoding="UTF-8" standalone="no"?>
<!DOCTYPE svg PUBLIC "-//W3C//DTD SVG 1.1//EN"
 "http://www.w3.org/Graphics/SVG/1.1/DTD/svg11.dtd">
<!-- Generated by graphviz version 2.38.0 (20140413.2041)
 -->
<!-- Title: finite_state_machine Pages: 1 -->
<svg width="281pt" height="46pt"
 viewBox="0.00 0.00 281.00 46.28" xmlns="http://www.w3.org/2000/svg" xmlns:xlink="http://www.w3.org/1999/xlink">
<g id="graph0" class="graph" transform="scale(1 1) rotate(0) translate(4 42.2803)">
<title>finite_state_machine</title>
<polygon fill="white" stroke="none" points="-4,4 -4,-42.2803 277,-42.2803 277,4 -4,4"/>
<!-- 1 -->
<g id="node1" class="node"><title>1</title>
<ellipse fill="none" stroke="black" cx="18" cy="-20.2803" rx="18" ry="18"/>
<text text-anchor="middle" x="18" y="-16.5803" font-family="Times,serif" font-size="14.00">1</text>
</g>
<!-- 0 -->
<g id="node2" class="node"><title>0</title>
<ellipse fill="none" stroke="black" cx="97" cy="-20.2803" rx="18" ry="18"/>
<text text-anchor="middle" x="97" y="-16.5803" font-family="Times,serif" font-size="14.00">0</text>
</g>
<!-- 1&#45;&gt;0 -->
<g id="edge1" class="edge"><title>1&#45;&gt;0</title>
<path fill="none" stroke="black" d="M36.0888,-20.2803C45.659,-20.2803 57.8172,-20.2803 68.6766,-20.2803"/>
<polygon fill="black" stroke="black" points="68.959,-23.7804 78.959,-20.2803 68.9589,-16.7804 68.959,-23.7804"/>
<text text-anchor="middle" x="57.5" y="-24.0803" font-family="Times,serif" font-size="14.00">0</text>
</g>
<!-- 0&#45;&gt;1 -->
<g id="edge2" class="edge"><title>0&#45;&gt;1</title>
<path fill="none" stroke="black" d="M82.8206,-9.14203C74.7571,-3.65931 64.084,1.2803 54,-1.2803 50.042,-2.28533 46.0474,-3.83796 42.2436,-5.63201"/>
<polygon fill="black" stroke="black" points="40.4751,-2.60875 33.3113,-10.4146 43.7793,-8.77986 40.4751,-2.60875"/>
<text text-anchor="middle" x="57.5" y="-5.0803" font-family="Times,serif" font-size="14.00">1</text>
</g>
<!-- 2 -->
<g id="node3" class="node"><title>2</title>
<ellipse fill="none" stroke="black" cx="176" cy="-20.2803" rx="18" ry="18"/>
<text text-anchor="middle" x="176" y="-16.5803" font-family="Times,serif" font-size="14.00">2</text>
</g>
<!-- 0&#45;&gt;2 -->
<g id="edge3" class="edge"><title>0&#45;&gt;2</title>
<path fill="none" stroke="black" d="M115.089,-20.2803C124.659,-20.2803 136.817,-20.2803 147.677,-20.2803"/>
<polygon fill="black" stroke="black" points="147.959,-23.7804 157.959,-20.2803 147.959,-16.7804 147.959,-23.7804"/>
<text text-anchor="middle" x="136.5" y="-24.0803" font-family="Times,serif" font-size="14.00">0</text>
</g>
<!-- 2&#45;&gt;0 -->
<g id="edge5" class="edge"><title>2&#45;&gt;0</title>
<path fill="none" stroke="black" d="M161.821,-9.14203C153.757,-3.65931 143.084,1.2803 133,-1.2803 129.042,-2.28533 125.047,-3.83796 121.244,-5.63201"/>
<polygon fill="black" stroke="black" points="119.475,-2.60875 112.311,-10.4146 122.779,-8.77986 119.475,-2.60875"/>
<text text-anchor="middle" x="136.5" y="-5.0803" font-family="Times,serif" font-size="14.00">1</text>
</g>
<!-- 3 -->
<g id="node4" class="node"><title>3</title>
<ellipse fill="none" stroke="black" cx="255" cy="-20.2803" rx="18" ry="18"/>
<text text-anchor="middle" x="255" y="-16.5803" font-family="Times,serif" font-size="14.00">3</text>
</g>
<!-- 2&#45;&gt;3 -->
<g id="edge6" class="edge"><title>2&#45;&gt;3</title>
<path fill="none" stroke="black" d="M194.089,-20.2803C203.659,-20.2803 215.817,-20.2803 226.677,-20.2803"/>
<polygon fill="black" stroke="black" points="226.959,-23.7804 236.959,-20.2803 226.959,-16.7804 226.959,-23.7804"/>
<text text-anchor="middle" x="215.5" y="-24.0803" font-family="Times,serif" font-size="14.00">0</text>
</g>
<!-- 3&#45;&gt;2 -->
<g id="edge4" class="edge"><title>3&#45;&gt;2</title>
<path fill="none" stroke="black" d="M239.283,-10.738C233.25,-7.36333 226.04,-3.98438 219,-2.2803 212.523,-0.712447 205.775,-2.11149 199.631,-4.6992"/>
<polygon fill="black" stroke="black" points="197.793,-1.7117 190.598,-9.48847 201.073,-7.89614 197.793,-1.7117"/>
<text text-anchor="middle" x="215.5" y="-6.0803" font-family="Times,serif" font-size="14.00">1</text>
</g>
</g>
</svg>
