<?xml version="1.0" encoding="UTF-8" standalone="no"?>
<!DOCTYPE svg PUBLIC "-//W3C//DTD SVG 1.1//EN"
 "http://www.w3.org/Graphics/SVG/1.1/DTD/svg11.dtd">
<!-- Generated by graphviz version 2.38.0 (20140413.2041)
 -->
<!-- Title: finite_state_machine Pages: 1 -->
<svg width="337pt" height="360pt"
 viewBox="0.00 0.00 336.94 360.00" xmlns="http://www.w3.org/2000/svg" xmlns:xlink="http://www.w3.org/1999/xlink">
<g id="graph0" class="graph" transform="scale(0.743802 0.743802) rotate(0) translate(4 480)">
<title>finite_state_machine</title>
<polygon fill="white" stroke="none" points="-4,4 -4,-480 449,-480 449,4 -4,4"/>
<!-- 2 -->
<g id="node1" class="node"><title>2</title>
<ellipse fill="none" stroke="black" cx="18" cy="-109" rx="18" ry="18"/>
<text text-anchor="middle" x="18" y="-105.3" font-family="Times,serif" font-size="14.00">2</text>
</g>
<!-- 0 -->
<g id="node2" class="node"><title>0</title>
<ellipse fill="none" stroke="black" cx="97" cy="-240" rx="18" ry="18"/>
<text text-anchor="middle" x="97" y="-236.3" font-family="Times,serif" font-size="14.00">0</text>
</g>
<!-- 2&#45;&gt;0 -->
<g id="edge1" class="edge"><title>2&#45;&gt;0</title>
<path fill="none" stroke="black" d="M23.6206,-126.166C29.0783,-144.632 39.3111,-174.388 54,-197 59.7611,-205.869 67.5429,-214.454 74.8427,-221.591"/>
<polygon fill="black" stroke="black" points="72.7619,-224.437 82.4562,-228.712 77.5434,-219.325 72.7619,-224.437"/>
<text text-anchor="middle" x="57.5" y="-209.8" font-family="Times,serif" font-size="14.00">8</text>
</g>
<!-- 3 -->
<g id="node3" class="node"><title>3</title>
<ellipse fill="none" stroke="black" cx="427" cy="-231" rx="18" ry="18"/>
<text text-anchor="middle" x="427" y="-227.3" font-family="Times,serif" font-size="14.00">3</text>
</g>
<!-- 2&#45;&gt;3 -->
<g id="edge2" class="edge"><title>2&#45;&gt;3</title>
<path fill="none" stroke="black" d="M27.0745,-93.2428C39.0501,-72.3256 63.6331,-38 96,-38 96,-38 96,-38 349,-38 419.031,-38 427.129,-148.98 426.953,-202.627"/>
<polygon fill="black" stroke="black" points="423.451,-202.797 426.816,-212.843 430.45,-202.891 423.451,-202.797"/>
<text text-anchor="middle" x="219" y="-41.8" font-family="Times,serif" font-size="14.00">1</text>
</g>
<!-- 4 -->
<g id="node4" class="node"><title>4</title>
<ellipse fill="none" stroke="black" cx="348" cy="-237" rx="18" ry="18"/>
<text text-anchor="middle" x="348" y="-233.3" font-family="Times,serif" font-size="14.00">4</text>
</g>
<!-- 2&#45;&gt;4 -->
<g id="edge3" class="edge"><title>2&#45;&gt;4</title>
<path fill="none" stroke="black" d="M36.2464,-108.182C80.1664,-106.884 198.514,-108.372 280,-156 303.048,-169.472 321.633,-193.996 333.33,-212.543"/>
<polygon fill="black" stroke="black" points="330.486,-214.604 338.657,-221.349 336.476,-210.981 330.486,-214.604"/>
<text text-anchor="middle" x="176" y="-125.8" font-family="Times,serif" font-size="14.00">3</text>
</g>
<!-- 0&#45;&gt;2 -->
<g id="edge12" class="edge"><title>0&#45;&gt;2</title>
<path fill="none" stroke="black" d="M87.509,-224.632C80.5058,-212.037 70.2536,-193.781 61,-178 52.0662,-162.765 41.7579,-145.821 33.5895,-132.536"/>
<polygon fill="black" stroke="black" points="36.5474,-130.665 28.3195,-123.99 30.5891,-134.339 36.5474,-130.665"/>
<text text-anchor="middle" x="57.5" y="-181.8" font-family="Times,serif" font-size="14.00">0</text>
</g>
<!-- 0&#45;&gt;3 -->
<g id="edge13" class="edge"><title>0&#45;&gt;3</title>
<path fill="none" stroke="black" d="M100.276,-257.712C107.505,-310.154 132.034,-461 175,-461 175,-461 175,-461 349,-461 391.107,-461 414.418,-320.63 422.602,-259.21"/>
<polygon fill="black" stroke="black" points="426.105,-259.413 423.914,-249.048 419.162,-258.517 426.105,-259.413"/>
<text text-anchor="middle" x="262" y="-464.8" font-family="Times,serif" font-size="14.00">0</text>
</g>
<!-- 1 -->
<g id="node5" class="node"><title>1</title>
<ellipse fill="none" stroke="black" cx="176" cy="-282" rx="18" ry="18"/>
<text text-anchor="middle" x="176" y="-278.3" font-family="Times,serif" font-size="14.00">1</text>
</g>
<!-- 0&#45;&gt;1 -->
<g id="edge14" class="edge"><title>0&#45;&gt;1</title>
<path fill="none" stroke="black" d="M113.213,-248.298C123.97,-254.165 138.612,-262.152 150.943,-268.878"/>
<polygon fill="black" stroke="black" points="149.364,-272.003 159.819,-273.719 152.716,-265.858 149.364,-272.003"/>
<text text-anchor="middle" x="136.5" y="-265.8" font-family="Times,serif" font-size="14.00">0</text>
</g>
<!-- 3&#45;&gt;2 -->
<g id="edge9" class="edge"><title>3&#45;&gt;2</title>
<path fill="none" stroke="black" d="M425.637,-212.872C424.303,-178.846 418.232,-103.817 391,-48 378.57,-22.5233 377.347,-0 349,-0 96,-0 96,-0 96,-0 56.0686,-0 35.0038,-49.4035 25.5009,-81.6903"/>
<polygon fill="black" stroke="black" points="22.0837,-80.9175 22.8126,-91.4873 28.8341,-82.7699 22.0837,-80.9175"/>
<text text-anchor="middle" x="219" y="-3.8" font-family="Times,serif" font-size="14.00">1</text>
</g>
<!-- 3&#45;&gt;0 -->
<g id="edge10" class="edge"><title>3&#45;&gt;0</title>
<path fill="none" stroke="black" d="M415.11,-217.075C401.492,-201.372 376.589,-178 349,-178 175,-178 175,-178 175,-178 149.336,-178 127.382,-199.153 113.56,-216.748"/>
<polygon fill="black" stroke="black" points="110.593,-214.874 107.448,-224.992 116.215,-219.044 110.593,-214.874"/>
<text text-anchor="middle" x="262" y="-181.8" font-family="Times,serif" font-size="14.00">10</text>
</g>
<!-- 3&#45;&gt;4 -->
<g id="edge8" class="edge"><title>3&#45;&gt;4</title>
<path fill="none" stroke="black" d="M412.235,-220.336C404.146,-215.364 393.646,-211.114 384,-214 379.49,-215.349 375.022,-217.488 370.863,-219.929"/>
<polygon fill="black" stroke="black" points="368.757,-217.126 362.359,-225.57 372.627,-222.96 368.757,-217.126"/>
<text text-anchor="middle" x="387.5" y="-217.8" font-family="Times,serif" font-size="14.00">0</text>
</g>
<!-- 3&#45;&gt;1 -->
<g id="edge11" class="edge"><title>3&#45;&gt;1</title>
<path fill="none" stroke="black" d="M412.135,-241.894C387.348,-260.578 333.051,-297.975 280,-311 250.494,-318.244 240.121,-315.502 212,-304 207.89,-302.319 203.722,-300.165 199.764,-297.865"/>
<polygon fill="black" stroke="black" points="201.368,-294.74 191.037,-292.389 197.647,-300.669 201.368,-294.74"/>
<text text-anchor="middle" x="305" y="-308.8" font-family="Times,serif" font-size="14.00">7</text>
</g>
<!-- 4&#45;&gt;2 -->
<g id="edge6" class="edge"><title>4&#45;&gt;2</title>
<path fill="none" stroke="black" d="M345.502,-219.15C341.039,-178.79 324.059,-84 263,-84 96,-84 96,-84 96,-84 77.8427,-84 58.4023,-90.3665 43.5978,-96.6739"/>
<polygon fill="black" stroke="black" points="41.8241,-93.6351 34.1619,-100.952 44.7148,-100.01 41.8241,-93.6351"/>
<text text-anchor="middle" x="176" y="-87.8" font-family="Times,serif" font-size="14.00">9</text>
</g>
<!-- 4&#45;&gt;3 -->
<g id="edge5" class="edge"><title>4&#45;&gt;3</title>
<path fill="none" stroke="black" d="M366.089,-235.668C375.659,-234.923 387.817,-233.975 398.677,-233.129"/>
<polygon fill="black" stroke="black" points="399.261,-236.594 408.959,-232.328 398.717,-229.615 399.261,-236.594"/>
<text text-anchor="middle" x="387.5" y="-237.8" font-family="Times,serif" font-size="14.00">5</text>
</g>
<!-- 4&#45;&gt;1 -->
<g id="edge4" class="edge"><title>4&#45;&gt;1</title>
<path fill="none" stroke="black" d="M331.557,-244.354C325.547,-247.02 318.544,-249.891 312,-252 275.284,-263.833 231.477,-272.63 203.944,-277.541"/>
<polygon fill="black" stroke="black" points="203.146,-274.127 193.894,-279.289 204.346,-281.023 203.146,-274.127"/>
<text text-anchor="middle" x="262" y="-272.8" font-family="Times,serif" font-size="14.00">0</text>
</g>
<!-- 5 -->
<g id="node6" class="node"><title>5</title>
<ellipse fill="none" stroke="black" cx="262" cy="-229" rx="18" ry="18"/>
<text text-anchor="middle" x="262" y="-225.3" font-family="Times,serif" font-size="14.00">5</text>
</g>
<!-- 4&#45;&gt;5 -->
<g id="edge7" class="edge"><title>4&#45;&gt;5</title>
<path fill="none" stroke="black" d="M333.641,-225.57C327.476,-221.028 319.802,-216.334 312,-214 303.85,-211.562 294.951,-213.038 287.001,-215.844"/>
<polygon fill="black" stroke="black" points="285.36,-212.74 277.565,-219.916 288.133,-219.168 285.36,-212.74"/>
<text text-anchor="middle" x="305" y="-217.8" font-family="Times,serif" font-size="14.00">0</text>
</g>
<!-- 1&#45;&gt;0 -->
<g id="edge19" class="edge"><title>1&#45;&gt;0</title>
<path fill="none" stroke="black" d="M166.577,-266.151C160.568,-256.649 151.518,-245.395 140,-240 135.452,-237.87 130.311,-236.886 125.226,-236.586"/>
<polygon fill="black" stroke="black" points="125.003,-233.089 115.072,-236.781 125.138,-240.088 125.003,-233.089"/>
<text text-anchor="middle" x="136.5" y="-243.8" font-family="Times,serif" font-size="14.00">7</text>
</g>
<!-- 1&#45;&gt;3 -->
<g id="edge18" class="edge"><title>1&#45;&gt;3</title>
<path fill="none" stroke="black" d="M187.032,-296.715C193.292,-304.786 202.042,-314.286 212,-320 250.58,-342.137 269.326,-336.545 312,-324 352.095,-312.213 362.182,-303.267 391,-273 396.983,-266.717 403.155,-259.566 408.619,-252.968"/>
<polygon fill="black" stroke="black" points="411.495,-254.979 415.094,-245.013 406.067,-250.56 411.495,-254.979"/>
<text text-anchor="middle" x="305" y="-331.8" font-family="Times,serif" font-size="14.00">4</text>
</g>
<!-- 1&#45;&gt;4 -->
<g id="edge17" class="edge"><title>1&#45;&gt;4</title>
<path fill="none" stroke="black" d="M193.787,-286.338C214.491,-290.93 250.557,-296.444 280,-288 298.443,-282.711 315.586,-269.439 327.914,-257.761"/>
<polygon fill="black" stroke="black" points="330.672,-259.954 335.286,-250.416 325.731,-254.995 330.672,-259.954"/>
<text text-anchor="middle" x="262" y="-295.8" font-family="Times,serif" font-size="14.00">1</text>
</g>
<!-- 1&#45;&gt;5 -->
<g id="edge20" class="edge"><title>1&#45;&gt;5</title>
<path fill="none" stroke="black" d="M190.15,-270.43C196.519,-265.104 204.416,-258.896 212,-254 219.53,-249.139 228.123,-244.483 235.989,-240.534"/>
<polygon fill="black" stroke="black" points="237.64,-243.623 245.103,-236.102 234.579,-237.328 237.64,-243.623"/>
<text text-anchor="middle" x="219" y="-257.8" font-family="Times,serif" font-size="14.00">10</text>
</g>
<!-- 5&#45;&gt;4 -->
<g id="edge15" class="edge"><title>5&#45;&gt;4</title>
<path fill="none" stroke="black" d="M279.999,-230.619C291.384,-231.703 306.624,-233.155 319.692,-234.399"/>
<polygon fill="black" stroke="black" points="319.74,-237.92 330.027,-235.383 320.404,-230.951 319.74,-237.92"/>
<text text-anchor="middle" x="305" y="-236.8" font-family="Times,serif" font-size="14.00">14</text>
</g>
<!-- 5&#45;&gt;1 -->
<g id="edge16" class="edge"><title>5&#45;&gt;1</title>
<path fill="none" stroke="black" d="M246.439,-219.499C236.223,-214.131 222.558,-209.648 212,-216 198.049,-224.393 189.364,-240.425 184.135,-254.585"/>
<polygon fill="black" stroke="black" points="180.698,-253.837 180.913,-264.43 187.35,-256.015 180.698,-253.837"/>
<text text-anchor="middle" x="219" y="-219.8" font-family="Times,serif" font-size="14.00">11</text>
</g>
</g>
</svg>
