<?xml version="1.0" encoding="UTF-8" standalone="no"?>
<!DOCTYPE svg PUBLIC "-//W3C//DTD SVG 1.1//EN"
 "http://www.w3.org/Graphics/SVG/1.1/DTD/svg11.dtd">
<!-- Generated by graphviz version 2.38.0 (20140413.2041)
 -->
<!-- Title: finite_state_machine Pages: 1 -->
<svg width="576pt" height="294pt"
 viewBox="0.00 0.00 576.00 293.98" xmlns="http://www.w3.org/2000/svg" xmlns:xlink="http://www.w3.org/1999/xlink">
<g id="graph0" class="graph" transform="scale(0.9216 0.9216) rotate(0) translate(4 314.992)">
<title>finite_state_machine</title>
<polygon fill="white" stroke="none" points="-4,4 -4,-314.992 621,-314.992 621,4 -4,4"/>
<!-- 2 -->
<g id="node1" class="node"><title>2</title>
<ellipse fill="none" stroke="black" cx="18" cy="-180.054" rx="18" ry="18"/>
<text text-anchor="middle" x="18" y="-176.354" font-family="Times,serif" font-size="14.00">2</text>
</g>
<!-- 1 -->
<g id="node2" class="node"><title>1</title>
<ellipse fill="none" stroke="black" cx="265.5" cy="-87.0539" rx="18" ry="18"/>
<text text-anchor="middle" x="265.5" y="-83.3539" font-family="Times,serif" font-size="14.00">1</text>
</g>
<!-- 2&#45;&gt;1 -->
<g id="edge1" class="edge"><title>2&#45;&gt;1</title>
<path fill="none" stroke="black" d="M20.0696,-161.867C22.4338,-140.156 29.9815,-104.699 54,-88.0539 109.916,-49.3045 195.815,-66.3799 238.527,-78.5826"/>
<polygon fill="black" stroke="black" points="237.587,-81.9544 248.171,-81.4676 239.593,-75.2481 237.587,-81.9544"/>
<text text-anchor="middle" x="118.5" y="-91.8539" font-family="Times,serif" font-size="14.00">2305843009213693951</text>
</g>
<!-- 0 -->
<g id="node3" class="node"><title>0</title>
<ellipse fill="none" stroke="black" cx="599" cy="-233.054" rx="18" ry="18"/>
<text text-anchor="middle" x="599" y="-229.354" font-family="Times,serif" font-size="14.00">0</text>
</g>
<!-- 2&#45;&gt;0 -->
<g id="edge2" class="edge"><title>2&#45;&gt;0</title>
<path fill="none" stroke="black" d="M20.8769,-197.911C24.0092,-217.641 32.2883,-248.54 54,-263.054 210.295,-367.537 289.011,-267.24 477,-265.054 515.23,-264.609 527.299,-276.735 563,-263.054 568.745,-260.852 574.196,-257.268 579.011,-253.329"/>
<polygon fill="black" stroke="black" points="581.419,-255.871 586.454,-246.549 576.705,-250.696 581.419,-255.871"/>
<text text-anchor="middle" x="412.5" y="-284.854" font-family="Times,serif" font-size="14.00">10</text>
</g>
<!-- 3 -->
<g id="node4" class="node"><title>3</title>
<ellipse fill="none" stroke="black" cx="513" cy="-158.054" rx="18" ry="18"/>
<text text-anchor="middle" x="513" y="-154.354" font-family="Times,serif" font-size="14.00">3</text>
</g>
<!-- 2&#45;&gt;3 -->
<g id="edge3" class="edge"><title>2&#45;&gt;3</title>
<path fill="none" stroke="black" d="M36.1965,-179.811C83.2335,-179.127 217.983,-177.039 330,-174.054 395.348,-172.312 412.563,-180.066 477,-169.054 479.943,-168.551 482.982,-167.863 485.982,-167.076"/>
<polygon fill="black" stroke="black" points="487.261,-170.347 495.844,-164.135 485.26,-163.639 487.261,-170.347"/>
<text text-anchor="middle" x="265.5" y="-179.854" font-family="Times,serif" font-size="14.00">2305843009213693941</text>
</g>
<!-- 1&#45;&gt;2 -->
<g id="edge10" class="edge"><title>1&#45;&gt;2</title>
<path fill="none" stroke="black" d="M247.659,-90.4491C231.19,-93.7481 205.393,-98.8599 183,-103.054 125.758,-113.775 102.518,-93.8427 54,-126.054 43.6672,-132.914 35.7141,-143.979 30.02,-154.312"/>
<polygon fill="black" stroke="black" points="26.7884,-152.948 25.4223,-163.455 33.0421,-156.093 26.7884,-152.948"/>
<text text-anchor="middle" x="118.5" y="-129.854" font-family="Times,serif" font-size="14.00">2305843009213693951</text>
</g>
<!-- 1&#45;&gt;3 -->
<g id="edge11" class="edge"><title>1&#45;&gt;3</title>
<path fill="none" stroke="black" d="M283.341,-90.4491C299.81,-93.7481 325.607,-98.8599 348,-103.054 405.242,-113.775 424.779,-100.275 477,-126.054 482.77,-128.902 488.279,-132.994 493.149,-137.305"/>
<polygon fill="black" stroke="black" points="491.053,-140.147 500.674,-144.584 495.92,-135.116 491.053,-140.147"/>
<text text-anchor="middle" x="412.5" y="-129.854" font-family="Times,serif" font-size="14.00">2305843009213693971</text>
</g>
<!-- 4 -->
<g id="node5" class="node"><title>4</title>
<ellipse fill="none" stroke="black" cx="513" cy="-30.0539" rx="18" ry="18"/>
<text text-anchor="middle" x="513" y="-26.3539" font-family="Times,serif" font-size="14.00">4</text>
</g>
<!-- 1&#45;&gt;4 -->
<g id="edge12" class="edge"><title>1&#45;&gt;4</title>
<path fill="none" stroke="black" d="M276.681,-72.8286C290.476,-54.916 316.979,-25.0358 348,-13.0539 401.482,7.60392 421.126,-0.202335 477,-13.0539 480.707,-13.9066 484.477,-15.2068 488.103,-16.7163"/>
<polygon fill="black" stroke="black" points="486.685,-19.9174 497.22,-21.0373 489.683,-13.5918 486.685,-19.9174"/>
<text text-anchor="middle" x="412.5" y="-16.8539" font-family="Times,serif" font-size="14.00">0</text>
</g>
<!-- 0&#45;&gt;2 -->
<g id="edge4" class="edge"><title>0&#45;&gt;2</title>
<path fill="none" stroke="black" d="M580.861,-233.339C513.161,-234.135 258.099,-234.014 54,-192.054 50.9523,-191.427 47.8049,-190.608 44.7047,-189.692"/>
<polygon fill="black" stroke="black" points="45.7341,-186.346 35.1412,-186.55 43.5493,-192.997 45.7341,-186.346"/>
<text text-anchor="middle" x="412.5" y="-235.854" font-family="Times,serif" font-size="14.00">0</text>
</g>
<!-- 0&#45;&gt;3 -->
<g id="edge5" class="edge"><title>0&#45;&gt;3</title>
<path fill="none" stroke="black" d="M590.947,-216.682C585.02,-204.597 575.509,-188.501 563,-178.054 556.454,-172.588 548.214,-168.456 540.369,-165.41"/>
<polygon fill="black" stroke="black" points="541.394,-162.061 530.8,-162.113 539.114,-168.68 541.394,-162.061"/>
<text text-anchor="middle" x="556" y="-181.854" font-family="Times,serif" font-size="14.00">0</text>
</g>
<!-- 3&#45;&gt;2 -->
<g id="edge6" class="edge"><title>3&#45;&gt;2</title>
<path fill="none" stroke="black" d="M494.784,-157.037C447.697,-154.44 312.833,-148.233 201,-155.054 135.301,-159.061 118.985,-162.592 54,-173.054 51.2832,-173.491 48.4559,-173.988 45.638,-174.509"/>
<polygon fill="black" stroke="black" points="44.8335,-171.1 35.6882,-176.449 46.1732,-177.971 44.8335,-171.1"/>
<text text-anchor="middle" x="265.5" y="-158.854" font-family="Times,serif" font-size="14.00">2305843009213693961</text>
</g>
<!-- 3&#45;&gt;1 -->
<g id="edge8" class="edge"><title>3&#45;&gt;1</title>
<path fill="none" stroke="black" d="M508.637,-140.431C504.407,-123.697 495.35,-99.4553 477,-88.0539 419.481,-52.3159 334.945,-67.7895 292.638,-79.0626"/>
<polygon fill="black" stroke="black" points="291.522,-75.7404 282.834,-81.8044 293.407,-82.4818 291.522,-75.7404"/>
<text text-anchor="middle" x="412.5" y="-91.8539" font-family="Times,serif" font-size="14.00">2305843009213693931</text>
</g>
<!-- 3&#45;&gt;0 -->
<g id="edge7" class="edge"><title>3&#45;&gt;0</title>
<path fill="none" stroke="black" d="M526.015,-170.675C532.637,-177.473 541.095,-185.908 549,-193.054 557.766,-200.978 567.821,-209.309 576.531,-216.303"/>
<polygon fill="black" stroke="black" points="574.378,-219.063 584.385,-222.543 578.733,-213.582 574.378,-219.063"/>
<text text-anchor="middle" x="556" y="-207.854" font-family="Times,serif" font-size="14.00">10</text>
</g>
<!-- 4&#45;&gt;1 -->
<g id="edge9" class="edge"><title>4&#45;&gt;1</title>
<path fill="none" stroke="black" d="M494.905,-30.435C464.709,-31.4812 400.192,-35.3978 348,-50.0539 327.93,-55.6899 306.513,-65.58 290.673,-73.7177"/>
<polygon fill="black" stroke="black" points="288.806,-70.7449 281.593,-78.5044 292.071,-76.9372 288.806,-70.7449"/>
<text text-anchor="middle" x="412.5" y="-53.8539" font-family="Times,serif" font-size="14.00">20</text>
</g>
</g>
</svg>
