<?xml version="1.0" encoding="UTF-8" standalone="no"?>
<!DOCTYPE svg PUBLIC "-//W3C//DTD SVG 1.1//EN"
 "http://www.w3.org/Graphics/SVG/1.1/DTD/svg11.dtd">
<!-- Generated by graphviz version 2.38.0 (20140413.2041)
 -->
<!-- Title: finite_state_machine Pages: 1 -->
<svg width="576pt" height="307pt"
 viewBox="0.00 0.00 576.00 306.76" xmlns="http://www.w3.org/2000/svg" xmlns:xlink="http://www.w3.org/1999/xlink">
<g id="graph0" class="graph" transform="scale(0.405348 0.405348) rotate(0) translate(4 752.781)">
<title>finite_state_machine</title>
<polygon fill="white" stroke="none" points="-4,4 -4,-752.781 1417,-752.781 1417,4 -4,4"/>
<!-- 6 -->
<g id="node1" class="node"><title>6</title>
<ellipse fill="none" stroke="black" cx="18" cy="-440.781" rx="18" ry="18"/>
<text text-anchor="middle" x="18" y="-437.081" font-family="Times,serif" font-size="14.00">6</text>
</g>
<!-- 5 -->
<g id="node2" class="node"><title>5</title>
<ellipse fill="none" stroke="black" cx="265.5" cy="-440.781" rx="18" ry="18"/>
<text text-anchor="middle" x="265.5" y="-437.081" font-family="Times,serif" font-size="14.00">5</text>
</g>
<!-- 6&#45;&gt;5 -->
<g id="edge1" class="edge"><title>6&#45;&gt;5</title>
<path fill="none" stroke="black" d="M33.7168,-431.239C39.7499,-427.864 46.9605,-424.485 54,-422.781 118.958,-407.056 198.091,-422.836 238.31,-433.238"/>
<polygon fill="black" stroke="black" points="237.556,-436.66 248.122,-435.872 239.371,-429.899 237.556,-436.66"/>
<text text-anchor="middle" x="118.5" y="-426.581" font-family="Times,serif" font-size="14.00">2305843009213693951</text>
</g>
<!-- 4 -->
<g id="node3" class="node"><title>4</title>
<ellipse fill="none" stroke="black" cx="1395" cy="-410.781" rx="18" ry="18"/>
<text text-anchor="middle" x="1395" y="-407.081" font-family="Times,serif" font-size="14.00">4</text>
</g>
<!-- 6&#45;&gt;4 -->
<g id="edge2" class="edge"><title>6&#45;&gt;4</title>
<path fill="none" stroke="black" d="M18.5934,-458.785C17.7673,-513.266 18.4219,-674.763 54,-709.781 121.108,-775.833 170.338,-733.781 264.5,-733.781 264.5,-733.781 264.5,-733.781 1148.5,-733.781 1242.66,-733.781 1292.32,-776.263 1359,-709.781 1378.01,-690.827 1389.05,-509.714 1392.67,-438.931"/>
<polygon fill="black" stroke="black" points="1396.16,-439.102 1393.17,-428.94 1389.17,-438.753 1396.16,-439.102"/>
<text text-anchor="middle" x="706.5" y="-737.581" font-family="Times,serif" font-size="14.00">2305843009213693951</text>
</g>
<!-- 3 -->
<g id="node4" class="node"><title>3</title>
<ellipse fill="none" stroke="black" cx="1147.5" cy="-410.781" rx="18" ry="18"/>
<text text-anchor="middle" x="1147.5" y="-407.081" font-family="Times,serif" font-size="14.00">3</text>
</g>
<!-- 6&#45;&gt;3 -->
<g id="edge3" class="edge"><title>6&#45;&gt;3</title>
<path fill="none" stroke="black" d="M29.7879,-454.787C61.2942,-493.957 157.719,-601.781 264.5,-601.781 264.5,-601.781 264.5,-601.781 854.5,-601.781 976.758,-601.781 1087.73,-483.067 1129.23,-432.822"/>
<polygon fill="black" stroke="black" points="1132.14,-434.795 1135.72,-424.826 1126.7,-430.383 1132.14,-434.795"/>
<text text-anchor="middle" x="559.5" y="-605.581" font-family="Times,serif" font-size="14.00">2305843009213693951</text>
</g>
<!-- 2 -->
<g id="node5" class="node"><title>2</title>
<ellipse fill="none" stroke="black" cx="853.5" cy="-297.781" rx="18" ry="18"/>
<text text-anchor="middle" x="853.5" y="-294.081" font-family="Times,serif" font-size="14.00">2</text>
</g>
<!-- 6&#45;&gt;2 -->
<g id="edge4" class="edge"><title>6&#45;&gt;2</title>
<path fill="none" stroke="black" d="M31.5647,-428.726C37.9292,-423.064 45.9911,-416.531 54,-411.781 174.959,-340.04 209.881,-321.254 348,-294.781 440.582,-277.036 734.145,-291.253 825.258,-296.228"/>
<polygon fill="black" stroke="black" points="825.16,-299.728 835.338,-296.786 825.547,-292.739 825.16,-299.728"/>
<text text-anchor="middle" x="412.5" y="-298.581" font-family="Times,serif" font-size="14.00">2305843009213693951</text>
</g>
<!-- 1 -->
<g id="node6" class="node"><title>1</title>
<ellipse fill="none" stroke="black" cx="559.5" cy="-208.781" rx="18" ry="18"/>
<text text-anchor="middle" x="559.5" y="-205.081" font-family="Times,serif" font-size="14.00">1</text>
</g>
<!-- 6&#45;&gt;1 -->
<g id="edge5" class="edge"><title>6&#45;&gt;1</title>
<path fill="none" stroke="black" d="M19.5737,-422.543C21.3556,-378.759 28.3322,-269.571 54,-245.781 123.78,-181.106 436.836,-199.404 531.378,-206.553"/>
<polygon fill="black" stroke="black" points="531.31,-210.058 541.552,-207.344 531.853,-203.079 531.31,-210.058"/>
<text text-anchor="middle" x="265.5" y="-207.581" font-family="Times,serif" font-size="14.00">2305843009213693951</text>
</g>
<!-- 5&#45;&gt;6 -->
<g id="edge6" class="edge"><title>5&#45;&gt;6</title>
<path fill="none" stroke="black" d="M247.256,-440.781C205.281,-440.781 97.5089,-440.781 46.5212,-440.781"/>
<polygon fill="black" stroke="black" points="46.2631,-437.281 36.2631,-440.781 46.263,-444.281 46.2631,-437.281"/>
<text text-anchor="middle" x="118.5" y="-444.581" font-family="Times,serif" font-size="14.00">2305843009213693951</text>
</g>
<!-- 5&#45;&gt;4 -->
<g id="edge7" class="edge"><title>5&#45;&gt;4</title>
<path fill="none" stroke="black" d="M280.74,-450.453C296.424,-460.488 322.778,-475.567 348,-481.781 474.891,-513.042 511.319,-485.67 642,-486.781 699.331,-487.268 713.693,-488.534 771,-486.781 1033.44,-478.755 1108.39,-508.094 1359,-429.781 1362.9,-428.563 1366.86,-426.896 1370.65,-425.051"/>
<polygon fill="black" stroke="black" points="1372.42,-428.071 1379.58,-420.256 1369.11,-421.904 1372.42,-428.071"/>
<text text-anchor="middle" x="853.5" y="-489.581" font-family="Times,serif" font-size="14.00">2305843009213693951</text>
</g>
<!-- 5&#45;&gt;3 -->
<g id="edge8" class="edge"><title>5&#45;&gt;3</title>
<path fill="none" stroke="black" d="M282.408,-447.21C298.6,-453.382 324.582,-462.27 348,-465.781 404.7,-474.282 419.675,-466.756 477,-465.781 738.592,-461.333 808.105,-487.328 1065,-437.781 1084.21,-434.076 1105.14,-427.073 1120.99,-421.127"/>
<polygon fill="black" stroke="black" points="1122.52,-424.286 1130.59,-417.418 1120,-417.756 1122.52,-424.286"/>
<text text-anchor="middle" x="706.5" y="-471.581" font-family="Times,serif" font-size="14.00">2305843009213693951</text>
</g>
<!-- 5&#45;&gt;2 -->
<g id="edge9" class="edge"><title>5&#45;&gt;2</title>
<path fill="none" stroke="black" d="M283.461,-439.009C319.288,-435.195 405.28,-425.666 477,-414.781 608.27,-394.858 652.48,-421.627 771,-361.781 780.823,-356.821 780.563,-351.845 789,-344.781 802.117,-333.8 817.526,-322.362 829.88,-313.52"/>
<polygon fill="black" stroke="black" points="832.122,-316.22 838.259,-307.583 828.076,-310.508 832.122,-316.22"/>
<text text-anchor="middle" x="559.5" y="-415.581" font-family="Times,serif" font-size="14.00">2305843009213693951</text>
</g>
<!-- 5&#45;&gt;1 -->
<g id="edge10" class="edge"><title>5&#45;&gt;1</title>
<path fill="none" stroke="black" d="M274.224,-424.74C286.408,-401.304 312.415,-358.173 348,-336.781 397.913,-306.775 427.157,-343.902 477,-313.781 508.558,-294.71 532.473,-258.538 545.991,-234.044"/>
<polygon fill="black" stroke="black" points="549.209,-235.446 550.818,-224.974 543.03,-232.158 549.209,-235.446"/>
<text text-anchor="middle" x="412.5" y="-340.581" font-family="Times,serif" font-size="14.00">2305843009213693951</text>
</g>
<!-- 4&#45;&gt;6 -->
<g id="edge11" class="edge"><title>4&#45;&gt;6</title>
<path fill="none" stroke="black" d="M1388.79,-427.755C1368.79,-489.111 1290.87,-695.781 1148.5,-695.781 264.5,-695.781 264.5,-695.781 264.5,-695.781 163.269,-695.781 118.604,-686.717 54,-608.781 36.5967,-587.786 26.1858,-510.909 21.6662,-468.808"/>
<polygon fill="black" stroke="black" points="25.1274,-468.252 20.6191,-458.664 18.1644,-468.97 25.1274,-468.252"/>
<text text-anchor="middle" x="706.5" y="-699.581" font-family="Times,serif" font-size="14.00">2305843009213693951</text>
</g>
<!-- 4&#45;&gt;5 -->
<g id="edge12" class="edge"><title>4&#45;&gt;5</title>
<path fill="none" stroke="black" d="M1386.61,-427.288C1380.73,-438.489 1371.43,-452.683 1359,-460.781 1303.2,-497.132 1278.05,-481.283 1212,-489.781 895.87,-530.456 813.729,-506.949 495,-504.781 429.662,-504.336 409.772,-524.075 348,-502.781 323.668,-494.393 300.793,-475.665 285.508,-460.974"/>
<polygon fill="black" stroke="black" points="287.795,-458.312 278.239,-453.736 282.856,-463.272 287.795,-458.312"/>
<text text-anchor="middle" x="853.5" y="-516.581" font-family="Times,serif" font-size="14.00">2305843009213693951</text>
</g>
<!-- 4&#45;&gt;3 -->
<g id="edge13" class="edge"><title>4&#45;&gt;3</title>
<path fill="none" stroke="black" d="M1379.28,-401.239C1373.25,-397.864 1366.04,-394.485 1359,-392.781 1294.04,-377.056 1214.91,-392.836 1174.69,-403.238"/>
<polygon fill="black" stroke="black" points="1173.63,-399.899 1164.88,-405.872 1175.44,-406.66 1173.63,-399.899"/>
<text text-anchor="middle" x="1294.5" y="-396.581" font-family="Times,serif" font-size="14.00">2305843009213693951</text>
</g>
<!-- 4&#45;&gt;2 -->
<g id="edge14" class="edge"><title>4&#45;&gt;2</title>
<path fill="none" stroke="black" d="M1394.7,-392.487C1394.7,-364.57 1390.23,-311.646 1359,-283.781 1219.19,-159.027 960.906,-252.473 879.652,-286.623"/>
<polygon fill="black" stroke="black" points="878.038,-283.507 870.22,-290.658 880.791,-289.943 878.038,-283.507"/>
<text text-anchor="middle" x="1147.5" y="-231.581" font-family="Times,serif" font-size="14.00">2305843009213693951</text>
</g>
<!-- 4&#45;&gt;1 -->
<g id="edge15" class="edge"><title>4&#45;&gt;1</title>
<path fill="none" stroke="black" d="M1394.55,-392.518C1395.83,-336.455 1396.4,-168.456 1359,-132.781 1128.42,87.1741 933.709,-4.50711 642,-132.781 615.518,-144.426 592.166,-168.397 577.323,-186.321"/>
<polygon fill="black" stroke="black" points="574.253,-184.557 570.744,-194.554 579.721,-188.927 574.253,-184.557"/>
<text text-anchor="middle" x="1000.5" y="-22.5809" font-family="Times,serif" font-size="14.00">2305843009213693951</text>
</g>
<!-- 3&#45;&gt;6 -->
<g id="edge16" class="edge"><title>3&#45;&gt;6</title>
<path fill="none" stroke="black" d="M1140.87,-427.639C1130.3,-457.01 1104.88,-517.942 1065,-554.781 989.193,-624.802 957.698,-652.781 854.5,-652.781 264.5,-652.781 264.5,-652.781 264.5,-652.781 159.752,-652.781 122.406,-626.108 54,-546.781 34.903,-524.635 26.1588,-491.77 22.1976,-468.515"/>
<polygon fill="black" stroke="black" points="25.6511,-467.944 20.6942,-458.58 18.7299,-468.991 25.6511,-467.944"/>
<text text-anchor="middle" x="559.5" y="-656.581" font-family="Times,serif" font-size="14.00">2305843009213693951</text>
</g>
<!-- 3&#45;&gt;5 -->
<g id="edge17" class="edge"><title>3&#45;&gt;5</title>
<path fill="none" stroke="black" d="M1129.43,-411.568C1053.28,-415.055 736.867,-429.267 477,-436.781 411.235,-438.683 333.886,-439.887 293.755,-440.435"/>
<polygon fill="black" stroke="black" points="293.645,-436.936 283.693,-440.57 293.739,-443.936 293.645,-436.936"/>
<text text-anchor="middle" x="706.5" y="-434.581" font-family="Times,serif" font-size="14.00">2305843009213693951</text>
</g>
<!-- 3&#45;&gt;4 -->
<g id="edge18" class="edge"><title>3&#45;&gt;4</title>
<path fill="none" stroke="black" d="M1165.76,-410.781C1207.76,-410.781 1315.53,-410.781 1366.5,-410.781"/>
<polygon fill="black" stroke="black" points="1366.76,-414.281 1376.76,-410.781 1366.76,-407.281 1366.76,-414.281"/>
<text text-anchor="middle" x="1294.5" y="-414.581" font-family="Times,serif" font-size="14.00">2305843009213693951</text>
</g>
<!-- 3&#45;&gt;2 -->
<g id="edge19" class="edge"><title>3&#45;&gt;2</title>
<path fill="none" stroke="black" d="M1136.2,-396.39C1122.28,-378.126 1095.65,-347.156 1065,-331.781 1056.86,-327.696 936.743,-309.785 881.695,-301.73"/>
<polygon fill="black" stroke="black" points="882.006,-298.239 871.606,-300.258 880.995,-305.165 882.006,-298.239"/>
<text text-anchor="middle" x="1000.5" y="-335.581" font-family="Times,serif" font-size="14.00">2305843009213693951</text>
</g>
<!-- 3&#45;&gt;1 -->
<g id="edge20" class="edge"><title>3&#45;&gt;1</title>
<path fill="none" stroke="black" d="M1129.3,-410.193C1093.01,-408.619 1006.19,-403.094 936,-384.781 799.112,-349.067 766.681,-329.628 642,-262.781 621.048,-251.548 598.626,-236.442 582.615,-225.064"/>
<polygon fill="black" stroke="black" points="584.591,-222.173 574.429,-219.174 580.503,-227.856 584.591,-222.173"/>
<text text-anchor="middle" x="853.5" y="-382.581" font-family="Times,serif" font-size="14.00">2305843009213693951</text>
</g>
<!-- 2&#45;&gt;6 -->
<g id="edge26" class="edge"><title>2&#45;&gt;6</title>
<path fill="none" stroke="black" d="M835.683,-295.163C819.231,-292.684 793.447,-289.018 771,-286.781 518.897,-261.652 447.51,-235.296 201,-293.781 134.645,-309.524 103.1,-290.452 54,-337.781 33.4826,-357.558 24.9924,-389.805 21.4793,-412.951"/>
<polygon fill="black" stroke="black" points="18.0086,-412.499 20.1901,-422.867 24.9502,-413.402 18.0086,-412.499"/>
<text text-anchor="middle" x="412.5" y="-270.581" font-family="Times,serif" font-size="14.00">2305843009213693951</text>
</g>
<!-- 2&#45;&gt;5 -->
<g id="edge27" class="edge"><title>2&#45;&gt;5</title>
<path fill="none" stroke="black" d="M835.614,-301.304C784.14,-312.158 624.797,-346.61 495,-383.781 486.893,-386.103 485.132,-387.55 477,-389.781 420.422,-405.302 404.925,-403.585 348,-417.781 329.394,-422.421 308.591,-428.303 292.66,-432.957"/>
<polygon fill="black" stroke="black" points="291.57,-429.63 282.967,-435.813 293.548,-436.344 291.57,-429.63"/>
<text text-anchor="middle" x="559.5" y="-387.581" font-family="Times,serif" font-size="14.00">2305843009213693951</text>
</g>
<!-- 2&#45;&gt;4 -->
<g id="edge28" class="edge"><title>2&#45;&gt;4</title>
<path fill="none" stroke="black" d="M871.521,-297.95C907.462,-298.518 993.658,-300.993 1065,-311.781 1197.81,-331.864 1238.81,-321.809 1359,-381.781 1364.21,-384.379 1369.32,-387.887 1373.96,-391.565"/>
<polygon fill="black" stroke="black" points="1371.84,-394.363 1381.72,-398.209 1376.4,-389.047 1371.84,-394.363"/>
<text text-anchor="middle" x="1147.5" y="-334.581" font-family="Times,serif" font-size="14.00">2305843009213693951</text>
</g>
<!-- 2&#45;&gt;3 -->
<g id="edge29" class="edge"><title>2&#45;&gt;3</title>
<path fill="none" stroke="black" d="M868.405,-308.327C884.01,-319.623 910.494,-337.213 936,-346.781 990.527,-367.235 1009.74,-351.391 1065,-369.781 1085.29,-376.532 1106.84,-387.563 1122.68,-396.483"/>
<polygon fill="black" stroke="black" points="1121.33,-399.746 1131.75,-401.707 1124.83,-393.681 1121.33,-399.746"/>
<text text-anchor="middle" x="1000.5" y="-373.581" font-family="Times,serif" font-size="14.00">2305843009213693951</text>
</g>
<!-- 2&#45;&gt;1 -->
<g id="edge30" class="edge"><title>2&#45;&gt;1</title>
<path fill="none" stroke="black" d="M839.362,-286.503C824.022,-273.979 797.376,-254.162 771,-243.781 762.516,-240.442 642.586,-221.539 587.641,-212.985"/>
<polygon fill="black" stroke="black" points="587.989,-209.497 577.571,-211.42 586.914,-216.414 587.989,-209.497"/>
<text text-anchor="middle" x="706.5" y="-247.581" font-family="Times,serif" font-size="14.00">2305843009213693951</text>
</g>
<!-- 1&#45;&gt;6 -->
<g id="edge21" class="edge"><title>1&#45;&gt;6</title>
<path fill="none" stroke="black" d="M542.834,-201.791C473.522,-172.045 191.793,-63.7156 54,-202.781 25.1416,-231.906 19.9618,-356.358 19.1147,-412.778"/>
<polygon fill="black" stroke="black" points="15.6149,-412.755 18.9998,-422.795 22.6144,-412.836 15.6149,-412.755"/>
<text text-anchor="middle" x="265.5" y="-143.581" font-family="Times,serif" font-size="14.00">2305843009213693951</text>
</g>
<!-- 1&#45;&gt;5 -->
<g id="edge22" class="edge"><title>1&#45;&gt;5</title>
<path fill="none" stroke="black" d="M550.084,-224.36C530.465,-260.562 482.909,-347.61 477,-351.781 429.42,-385.363 400.971,-350.579 348,-374.781 324.026,-385.734 301.104,-405.405 285.711,-420.431"/>
<polygon fill="black" stroke="black" points="282.956,-418.238 278.382,-427.795 287.917,-423.176 282.956,-418.238"/>
<text text-anchor="middle" x="412.5" y="-378.581" font-family="Times,serif" font-size="14.00">2305843009213693951</text>
</g>
<!-- 1&#45;&gt;4 -->
<g id="edge23" class="edge"><title>1&#45;&gt;4</title>
<path fill="none" stroke="black" d="M575.545,-200.367C591.479,-191.977 617.647,-179.657 642,-174.781 698.218,-163.525 713.714,-172.447 771,-174.781 1032.99,-185.456 1164.33,-47.1277 1359,-222.781 1382.21,-243.724 1390.21,-335.599 1392.82,-382.707"/>
<polygon fill="black" stroke="black" points="1389.33,-383.037 1393.34,-392.846 1396.32,-382.681 1389.33,-383.037"/>
<text text-anchor="middle" x="1000.5" y="-167.581" font-family="Times,serif" font-size="14.00">2305843009213693951</text>
</g>
<!-- 1&#45;&gt;3 -->
<g id="edge24" class="edge"><title>1&#45;&gt;3</title>
<path fill="none" stroke="black" d="M576.762,-202.757C593.013,-197.082 618.845,-188.986 642,-185.781 698.792,-177.921 714.74,-174.741 771,-185.781 909.491,-212.956 965.165,-206.025 1065,-305.781 1079.95,-320.715 1071.12,-332.306 1083,-349.781 1094.53,-366.743 1111.41,-382.679 1124.87,-394.007"/>
<polygon fill="black" stroke="black" points="1122.78,-396.813 1132.73,-400.432 1127.21,-391.393 1122.78,-396.813"/>
<text text-anchor="middle" x="853.5" y="-218.581" font-family="Times,serif" font-size="14.00">2305843009213693951</text>
</g>
<!-- 1&#45;&gt;2 -->
<g id="edge25" class="edge"><title>1&#45;&gt;2</title>
<path fill="none" stroke="black" d="M577.018,-204.034C613.813,-194.393 704.509,-175.855 771,-205.781 801.612,-219.559 825.379,-251.148 839.153,-273.453"/>
<polygon fill="black" stroke="black" points="836.155,-275.26 844.269,-282.073 842.175,-271.687 836.155,-275.26"/>
<text text-anchor="middle" x="706.5" y="-209.581" font-family="Times,serif" font-size="14.00">2305843009213693951</text>
</g>
</g>
</svg>
